<?xml version="1.0" encoding="UTF-8"?><svg id="Layer_1" xmlns="http://www.w3.org/2000/svg" viewBox="0 0 25.25 30.5"><defs><style>.cls-1{fill:none;stroke:#02a652;stroke-linecap:round;stroke-linejoin:round;stroke-width:.92px;}.cls-2{fill:#2e3192;}.cls-3{fill:#03a653;}.cls-4{fill:#02a652;}.cls-5{fill:#03a753;}.cls-6{fill:#2f3292;}</style></defs><path class="cls-4" d="M22.16,11.52c.44,.1,.88,.2,1.28,.43,1.18,.7,1.78,1.74,1.79,3.1,.01,1.91,.02,3.82,0,5.72-.02,1.83-1.19,3.19-2.96,3.5-.04,0-.07,.03-.11,.04-.31,0-.63,0-.94,.01-.07,0-.14,0-.21,0-5.6,0-11.19,0-16.79,0-.07,0-.14,0-.21,0-.31,0-.63,0-.94-.01-.63-.13-1.24-.33-1.75-.75C.45,22.85,.01,21.92,0,20.78c0-1.91-.02-3.82,0-5.72,.02-1.82,1.19-3.19,2.96-3.5,.04,0,.07-.03,.11-.04,.31,0,.63,0,.94-.01,.07,0,.14,0,.21,0,5.6,0,11.19,0,16.79,0,.07,0,.14,0,.21,0,.31,0,.63,0,.94,.01Zm-9.54,.94c-2.99,0-5.97,0-8.96,0-1.64,0-2.7,1.06-2.71,2.71,0,1.84,0,3.68,0,5.52,0,1.63,1.07,2.69,2.69,2.69,5.98,0,11.96,0,17.94,0,1.62,0,2.69-1.06,2.69-2.69,0-1.84,0-3.68,0-5.52,0-1.65-1.06-2.71-2.71-2.71-2.99,0-5.97,0-8.96,0Z"/><path class="cls-6" d="M4.02,11.5c-.31,0-.63,0-.94,.01,0-.44-.01-.89-.01-1.33,0-3.16,0-6.33,0-9.49,0-.56,.13-.69,.7-.69C7.26,0,10.75,0,14.24,0c.26,0,.45,.08,.62,.27,2.36,2.5,4.72,5,7.09,7.5,.13,.13,.22,.27,.22,.47,0,1.1,0,2.19-.01,3.29-.31,0-.63,0-.94-.01,0-.85,0-1.7,0-2.55,0-.23-.05-.3-.29-.29-2.12,.01-4.23,0-6.35,0-.53,0-.67-.14-.67-.67,0-2.26,0-4.53,0-6.79,0-.21-.05-.26-.26-.26-3.13,0-6.27,0-9.4,0-.22,0-.26,.07-.25,.27,0,3.43,0,6.86,0,10.29Zm16.58-3.79c-1.93-2.03-3.8-4.01-5.72-6.05,0,2.01,0,3.94,0,5.86,0,.21,.12,.18,.24,.18,1.49,0,2.98,0,4.48,0h1Z"/><path class="cls-2" d="M3.08,24.32c.31,0,.63,0,.94,.01,0,.59,0,1.19,0,1.78,0,.18,.04,.24,.23,.23,.49-.01,.99,0,1.48,0,5.06,0,10.12,0,15.19,0,.27,0,.33-.07,.32-.32-.02-.56,0-1.13,0-1.69,.31,0,.63,0,.94-.01,0,.82,.01,1.64,0,2.46,0,.33-.19,.5-.52,.51-.06,0-.12,0-.18,0-5.9,0-11.8,0-17.7,0-.57,0-.7-.13-.7-.69,0-.76,0-1.52,.01-2.28Z"/><path class="cls-3" d="M12.82,21.1c-1.22,0-1.93-.52-2.18-1.55-.1-.4-.09-.41,.31-.46,.08,0,.16-.02,.24-.03,.18-.01,.36-.07,.53-.03,.21,.05,.14,.3,.22,.45,.27,.54,1.19,.7,1.61,.27,.26-.27,.19-.61-.19-.74-.5-.17-1.03-.28-1.53-.46-.96-.35-1.34-1.34-.86-2.16,.22-.37,.55-.6,.95-.7,.59-.16,1.2-.16,1.78,.03,.65,.21,1,.68,1.1,1.34,.03,.21-.03,.32-.26,.31-.16,0-.32,0-.47,.01-.31,.04-.52,0-.63-.37-.11-.37-.48-.36-.8-.35-.37,0-.66,.16-.65,.35,.01,.33,.3,.35,.53,.43,.39,.12,.78,.21,1.16,.34,.93,.31,1.34,.89,1.26,1.78-.07,.79-.67,1.36-1.57,1.48-.2,.03-.39,.03-.56,.04Z"/><path class="cls-5" d="M7.58,15.59c1.49,0,2.22,.5,2.54,1.39,.09,.25,.03,.35-.22,.38-.1,.01-.19,.04-.29,.07-.18,.04-.37,.13-.55,.12-.24-.01-.18-.29-.29-.43-.23-.31-.54-.42-.91-.4-.41,.02-.73,.22-.88,.6-.27,.69-.26,1.4,.01,2.08,.16,.4,.52,.59,.95,.58,.46,0,.75-.26,.91-.68q.17-.42,.59-.29c.09,.03,.19,.07,.28,.09q.52,.16,.32,.65c-.36,.88-1.07,1.33-2.07,1.34-1.02,0-1.88-.53-2.24-1.45-.34-.89-.34-1.81,.05-2.68,.43-.94,1.21-1.36,1.78-1.36Z"/><path class="cls-3" d="M17.59,19.19c.32-.96,.61-1.82,.9-2.69q.27-.82,1.12-.82c.07,0,.14,0,.21,0,.21-.01,.26,.08,.19,.27-.58,1.62-1.17,3.25-1.74,4.87-.05,.15-.13,.2-.28,.19-.29,0-.57,0-.86,0-.14,0-.21-.05-.26-.18-.58-1.63-1.16-3.27-1.75-4.9-.08-.21,0-.27,.2-.26,.28,0,.55,.01,.83,0,.2-.01,.28,.08,.33,.25,.36,1.06,.72,2.13,1.11,3.27Z"/><path class="cls-1" d="M11.93,24.49v5.55m-1.85-1.85l1.85,1.85,1.85-1.85"/></svg>