<svg id="Group_76986" data-name="Group 76986" xmlns="http://www.w3.org/2000/svg" xmlns:xlink="http://www.w3.org/1999/xlink" width="14.978" height="13.471" viewBox="0 0 14.978 13.471">
  <defs>
    <clipPath id="clip-path">
      <rect id="Rectangle_20143" data-name="Rectangle 20143" width="14.978" height="13.471" fill="none"/>
    </clipPath>
  </defs>
  <g id="Mask_Group_76985" data-name="Mask Group 76985" clip-path="url(#clip-path)">
    <path id="Path_1224" data-name="Path 1224" d="M12.4,3.773c-.073-.077-.111-.119-.152-.159L9.918,1.3A.745.745,0,1,1,10.962.24q1.873,1.849,3.743,3.7a.747.747,0,0,1,0,1.152q-1.845,1.826-3.694,3.65a.731.731,0,0,1-1.075.031.746.746,0,0,1,.032-1.09q1.144-1.131,2.293-2.257a.912.912,0,0,1,.156-.1l-.047-.065h-.168c-1.556,0-3.113,0-4.669,0A5.97,5.97,0,0,0,1.784,9.417,5.883,5.883,0,0,0,1.5,11.292c0,.466.006.932,0,1.4a.745.745,0,0,1-.972.743.663.663,0,0,1-.511-.623A12.554,12.554,0,0,1,.2,9.541,7.373,7.373,0,0,1,4.769,4.28a7.206,7.206,0,0,1,2.8-.508c1.55.006,3.1,0,4.651,0Z" transform="translate(0 0)" fill="#302152"/>
  </g>
</svg>
