<?xml version="1.0" encoding="UTF-8"?><svg id="Layer_1" xmlns="http://www.w3.org/2000/svg" viewBox="0 0 26.13 29.37"><defs><style>.cls-1{fill:#302152;}.cls-2{fill:#0058ff;}</style></defs><path class="cls-1" d="M18.74,0c.27,.11,.48,.29,.69,.49,2.04,1.91,4.08,3.81,6.12,5.71,.42,.39,.53,.79,.33,1.2-.16,.32-.42,.52-.79,.52-.47,.01-.94,0-1.4,0-1.72,0-3.44,0-5.16,0-.81,0-1.14-.34-1.14-1.16,0-1.54,0-3.08,0-4.62,0-.22-.04-.29-.28-.29-4.13,0-8.26,0-12.38,0-.21,0-.27,.05-.27,.27,0,1.59,0,3.17,0,4.76,0,.61-.37,1.02-.92,1.03-.55,0-.95-.39-.96-.99,0-.66,0-1.32,0-1.98,0-1.25,.01-2.5,0-3.76,0-.58,.18-.99,.74-1.2h15.43Zm.51,2.88c0,1.05,0,2.02,0,2.99,0,.21,.12,.2,.25,.2,.98,0,1.97,0,2.95,0,.05,0,.12,.04,.15-.06-1.1-1.02-2.2-2.05-3.35-3.12Z"/><path class="cls-1" d="M14.32,29.37c-3.54,0-7.07,0-10.61,0-.79,0-1.14-.35-1.14-1.14,0-3.14,0-6.27,0-9.41,0-.25-.06-.33-.31-.31-.42,.02-.84,.01-1.26,0-.6-.01-1-.38-1-.99-.01-1.84-.01-3.67,0-5.51,0-.64,.4-.99,1.08-.99,1.54,0,3.08,0,4.62,0,.69,0,1.38,0,2.06,0,.22,0,.3-.05,.29-.28-.01-.83,0-1.66,0-2.49,0-.44,.11-.8,.52-1,.42-.21,.79-.07,1.13,.21,2.63,2.13,5.25,4.26,7.88,6.39,.6,.49,.61,1.13,0,1.62-2.63,2.14-5.27,4.28-7.9,6.41-.62,.5-1.32,.36-1.58-.31-.06-.16-.06-.32-.06-.48,0-.78,0-1.57,0-2.35,0-.18-.04-.25-.23-.25-1.05,.01-2.1,0-3.15,0-.18,0-.22,.05-.22,.22,0,2.84,0,5.68,0,8.52,0,.26,.13,.24,.3,.24,4.43,0,8.85,0,13.28,0,1.98,0,3.96,0,5.94,0,.24,0,.3-.06,.3-.3,0-4.81,0-9.62,0-14.42,0-.17,0-.34,.05-.51,.14-.41,.51-.65,.95-.63,.41,.02,.76,.32,.84,.74,.02,.13,.03,.27,.03,.4,0,5.15,0,10.3,0,15.46,0,.79-.35,1.14-1.13,1.14-3.56,0-7.11,0-10.67,0Zm-4.41-10.08c.08-.04,.1-.06,.13-.07,1.8-1.46,3.6-2.93,5.41-4.38,.18-.15,.11-.21-.02-.31-1.51-1.22-3.01-2.44-4.52-3.66-.31-.26-.63-.51-.95-.77-.02,.05-.04,.06-.04,.08,0,.54,0,1.07,0,1.61,0,.8-.33,1.13-1.13,1.13-2.21,0-4.41,0-6.62,0-.24,0-.3,.07-.29,.3,.01,1.03,.02,2.06,0,3.1,0,.27,.05,.35,.34,.35,2.22-.01,4.43,0,6.65,0,.69,0,1.06,.37,1.06,1.06,0,.51,0,1.02,0,1.58Z"/><path class="cls-2" d="M9.92,19.28c0-.56,0-1.07,0-1.58,0-.7-.37-1.06-1.06-1.06-2.22,0-4.43,0-6.65,0-.29,0-.34-.08-.34-.35,.02-1.03,.01-2.06,0-3.1,0-.23,.05-.3,.29-.3,2.21,.01,4.41,0,6.62,0,.8,0,1.13-.33,1.13-1.13,0-.54,0-1.07,0-1.61,0-.02,.01-.03,.04-.08,.32,.26,.64,.51,.95,.77,1.51,1.22,3.01,2.44,4.52,3.66,.13,.1,.2,.16,.02,.31-1.81,1.46-3.61,2.92-5.41,4.38-.02,.02-.05,.03-.13,.07Z"/></svg>