<svg xmlns="http://www.w3.org/2000/svg" width="20" height="18" viewBox="0 0 20 18">
  <g id="Group_77007" data-name="Group 77007" transform="translate(-104 -857)">
    <rect id="Rectangle_20156" data-name="Rectangle 20156" width="20" height="18" transform="translate(104 857)" fill="#fff"/>
    <path id="FluentAutosum20Filled" d="M3.819,3.775a.863.863,0,0,1,.794-.525H17.277a.863.863,0,0,1,0,1.727H6.642l4.773,4.959a.863.863,0,0,1,.04,1.152l-5,5.976H17.277a.863.863,0,0,1,0,1.727H4.613a.863.863,0,0,1-.662-1.417l5.681-6.8L3.992,4.712a.863.863,0,0,1-.173-.937Z" transform="translate(103.25 854.75)" fill="#00a28a"/>
  </g>
</svg>
