<?xml version="1.0" encoding="UTF-8"?><svg id="Layer_1" xmlns="http://www.w3.org/2000/svg" viewBox="0 0 32 32"><path d="M28,2c1.1,0,2,.9,2,2V28c0,1.1-.9,2-2,2H4c-1.1,0-2-.9-2-2V4c0-1.1,.9-2,2-2H28ZM4,0C1.79,0,0,1.79,0,4V28c0,2.21,1.79,4,4,4H28c2.21,0,4-1.79,4-4V4c0-2.21-1.79-4-4-4H4Z"/><path d="M17.86,13.18l-4.58,.57-.16,.76,.9,.17c.59,.14,.7,.35,.58,.94l-1.48,6.94c-.39,1.79,.21,2.64,1.62,2.64,1.09,0,2.36-.5,2.93-1.2l.18-.83c-.4,.35-.98,.49-1.37,.49-.55,0-.75-.39-.61-1.07l2-9.41Zm.14-4.18c0,1.1-.9,2-2,2s-2-.9-2-2,.9-2,2-2,2,.9,2,2Z"/></svg>