<svg xmlns="http://www.w3.org/2000/svg" width="15" height="15" viewBox="0 0 15 15">
  <path id="unpublished_FILL0_wght400_GRAD0_opsz48" d="M15.474,18.45l-2.02-2.029a7.148,7.148,0,0,1-1.932.988,7.034,7.034,0,0,1-2.248.353A7.1,7.1,0,0,1,6.5,17.224a6.816,6.816,0,0,1-3.715-3.732A7.189,7.189,0,0,1,2.248,10.7,7.128,7.128,0,0,1,2.6,8.444,7.206,7.206,0,0,1,3.583,6.5L1.3,4.209l.755-.759L16.23,17.691ZM9.274,16.7a6,6,0,0,0,1.827-.274,6.268,6.268,0,0,0,1.6-.768L9.59,12.538,8.238,13.915l-2.9-2.929.79-.794,2.108,2.118.562-.565L4.339,7.262a6.323,6.323,0,0,0-.764,1.606A6.077,6.077,0,0,0,3.3,10.7a5.865,5.865,0,0,0,5.972,6Zm5.691-1.8-.755-.759a6.323,6.323,0,0,0,.764-1.606,6.077,6.077,0,0,0,.272-1.835,5.865,5.865,0,0,0-5.972-6,6,6,0,0,0-1.827.274,6.268,6.268,0,0,0-1.6.768l-.755-.759A7.147,7.147,0,0,1,7.026,4a7.034,7.034,0,0,1,2.248-.353,6.946,6.946,0,0,1,6.481,4.288A7.043,7.043,0,0,1,16.3,10.7a7.128,7.128,0,0,1-.351,2.259A7.206,7.206,0,0,1,14.965,14.9Zm-3.847-3.882-.808-.794,2.09-2.1.808.794ZM10.03,9.944ZM8.519,11.462Z" transform="translate(-1.3 -3.45)" fill="#7a7a7a"/>
</svg>
