<svg xmlns="http://www.w3.org/2000/svg" width="20" height="20" viewBox="0 0 20 20">
  <path id="unpublished" d="M20.2,23.45l-2.693-2.705a9.53,9.53,0,0,1-2.576,1.317,9.379,9.379,0,0,1-3,.471,9.467,9.467,0,0,1-3.7-.717A9.088,9.088,0,0,1,3.28,16.839a9.585,9.585,0,0,1-.716-3.723,9.5,9.5,0,0,1,.469-3.008A9.608,9.608,0,0,1,4.344,7.517L1.3,4.462,2.307,3.45l18.9,18.988Zm-8.267-2.333a8,8,0,0,0,2.436-.365A8.357,8.357,0,0,0,16.5,19.727l-4.148-4.16-1.8,1.836L6.684,13.5l1.053-1.059,2.811,2.824.749-.753L5.352,8.533a8.431,8.431,0,0,0-1.019,2.141,8.1,8.1,0,0,0-.367,2.443,7.82,7.82,0,0,0,7.963,8Zm7.588-2.4L18.513,17.7a8.431,8.431,0,0,0,1.019-2.141,8.1,8.1,0,0,0,.363-2.447,7.82,7.82,0,0,0-7.963-8A8,8,0,0,0,9.5,5.482,8.357,8.357,0,0,0,7.363,6.506L6.356,5.494A9.529,9.529,0,0,1,8.935,4.183a9.379,9.379,0,0,1,3-.471A9.261,9.261,0,0,1,20.573,9.43a9.391,9.391,0,0,1,.727,3.687,9.5,9.5,0,0,1-.468,3.012A9.608,9.608,0,0,1,19.52,18.716Zm-5.129-5.176-1.077-1.059,2.787-2.8,1.077,1.059ZM12.94,12.109ZM10.925,14.133Z" transform="translate(-1.3 -3.45)" fill="#fff"/>
</svg>
