<svg id="Group_80903" data-name="Group 80903" xmlns="http://www.w3.org/2000/svg" width="100" height="100" viewBox="0 0 100 100">
  <circle id="Ellipse_534" data-name="Ellipse 534" cx="50" cy="50" r="50" fill="#2f47c2" opacity="0.05"/>
  <path id="Icon_awesome-cloud-upload-alt" data-name="Icon awesome-cloud-upload-alt" d="M56.109,22.56A10.031,10.031,0,0,0,46.758,8.93a9.968,9.968,0,0,0-5.563,1.691A16.7,16.7,0,0,0,10.02,18.949c0,.282.01.564.021.845a15.033,15.033,0,0,0,4.989,29.213H53.438A13.359,13.359,0,0,0,56.109,22.56Zm-15.05,6.408H34.233V40.658a1.675,1.675,0,0,1-1.67,1.67h-5.01a1.675,1.675,0,0,1-1.67-1.67V28.969H19.058a1.667,1.667,0,0,1-1.179-2.849l11-11a1.676,1.676,0,0,1,2.359,0l11,11a1.669,1.669,0,0,1-1.179,2.849Z" transform="translate(16.602 24.371)" fill="#674d8d" opacity="0.5"/>
</svg>
