<svg xmlns="http://www.w3.org/2000/svg" width="13.99" height="13.99" viewBox="0 0 13.99 13.99">
  <path id="schedule_FILL0_wght400_GRAD0_opsz48_2_" data-name="schedule_FILL0_wght400_GRAD0_opsz48 (2)" d="M13.566,14.37l.787-.787-2.781-2.8V7.27H10.523v3.935ZM11,17.99a6.769,6.769,0,0,1-2.711-.551,7.048,7.048,0,0,1-3.734-3.734,6.945,6.945,0,0,1,0-5.421A7.048,7.048,0,0,1,8.285,4.551a6.945,6.945,0,0,1,5.421,0A7.048,7.048,0,0,1,17.44,8.285a6.945,6.945,0,0,1,0,5.421,7.048,7.048,0,0,1-3.734,3.734A6.769,6.769,0,0,1,11,17.99ZM11,11Zm0,5.946a5.724,5.724,0,0,0,4.2-1.749A5.724,5.724,0,0,0,16.941,11a5.724,5.724,0,0,0-1.749-4.2A5.724,5.724,0,0,0,11,5.049,5.724,5.724,0,0,0,6.8,6.8,5.724,5.724,0,0,0,5.049,11a5.724,5.724,0,0,0,1.749,4.2A5.724,5.724,0,0,0,11,16.941Z" transform="translate(-4 -4)" fill="#5d417d"/>
</svg>
