<svg xmlns="http://www.w3.org/2000/svg" width="13.927" height="15.475" viewBox="0 0 13.927 15.475">
  <path id="date_range_FILL0_wght400_GRAD0_opsz48" d="M9.6,13.4a.76.76,0,1,1,.551-.222A.749.749,0,0,1,9.6,13.4Zm3.424,0a.76.76,0,1,1,.551-.222A.749.749,0,0,1,13.022,13.4Zm3.288,0a.76.76,0,1,1,.551-.222A.749.749,0,0,1,16.31,13.4Zm-9.15,6.074A1.19,1.19,0,0,1,6,18.314V6.321A1.19,1.19,0,0,1,7.161,5.161H8.418V4H9.675V5.161h6.577V4H17.51V5.161h1.257a1.19,1.19,0,0,1,1.161,1.161V18.314a1.19,1.19,0,0,1-1.161,1.161Zm0-1.161H18.767V10H7.161Zm0-9.478H18.767V6.321H7.161Zm0,0v0Z" transform="translate(-6 -4)" fill="#fff"/>
</svg>
