<svg xmlns="http://www.w3.org/2000/svg" width="19.49" height="19.49" viewBox="0 0 19.49 19.49">
  <path id="cancel_FILL1_wght400_GRAD0_opsz48" d="M10.091,18.423l3.654-3.654L17.4,18.423,18.423,17.4l-3.654-3.654,3.654-3.654L17.4,9.067l-3.654,3.654L10.091,9.067,9.067,10.091l3.654,3.654L9.067,17.4Zm3.654,5.067a9.429,9.429,0,0,1-3.776-.767,9.818,9.818,0,0,1-5.2-5.2,9.734,9.734,0,0,1,0-7.577,9.739,9.739,0,0,1,2.1-3.094A9.99,9.99,0,0,1,9.969,4.767a9.734,9.734,0,0,1,7.577,0,9.73,9.73,0,0,1,5.177,5.177,9.734,9.734,0,0,1,0,7.577,9.99,9.99,0,0,1-2.083,3.106,9.739,9.739,0,0,1-3.094,2.1A9.489,9.489,0,0,1,13.745,23.49Z" transform="translate(-4 -4)" fill="#ee4238"/>
</svg>
