<svg id="Component_1470_1" data-name="Component 1470 – 1" xmlns="http://www.w3.org/2000/svg" width="19" height="19" viewBox="0 0 19 19">
  <path id="info_FILL0_wght400_GRAD0_opsz48" d="M12.859,18.25h1.425v-5.7H12.859Zm.641-7.458a.78.78,0,0,0,.558-.214.719.719,0,0,0,.226-.546.8.8,0,0,0-.226-.57.775.775,0,0,0-1.116,0,.8.8,0,0,0-.226.57.719.719,0,0,0,.226.546A.78.78,0,0,0,13.5,10.792ZM13.5,23a9.192,9.192,0,0,1-3.681-.748,9.571,9.571,0,0,1-5.071-5.071,9.49,9.49,0,0,1,0-7.386A9.494,9.494,0,0,1,6.791,6.779,9.738,9.738,0,0,1,9.819,4.748a9.49,9.49,0,0,1,7.386,0A9.485,9.485,0,0,1,22.252,9.8a9.49,9.49,0,0,1,0,7.386,9.738,9.738,0,0,1-2.031,3.028A9.494,9.494,0,0,1,17.2,22.252,9.251,9.251,0,0,1,13.5,23Zm.024-1.425a7.743,7.743,0,0,0,5.7-2.363,7.829,7.829,0,0,0,2.351-5.736,7.762,7.762,0,0,0-2.351-5.7A7.79,7.79,0,0,0,13.5,5.425,7.8,7.8,0,0,0,7.788,7.776,7.77,7.77,0,0,0,5.425,13.5a7.782,7.782,0,0,0,2.363,5.712A7.809,7.809,0,0,0,13.524,21.575ZM13.5,13.5Z" transform="translate(-4 -4)" fill="#563978"/>
</svg>
