<svg xmlns="http://www.w3.org/2000/svg" width="15.596" height="12.656" viewBox="0 0 15.596 12.656">
  <path id="onsite-icon" d="M14.573,10.831a12.044,12.044,0,0,0-3.127-2.177A8.342,8.342,0,0,0,7.8,7.842a8.79,8.79,0,0,0-1.153.073,4.767,4.767,0,0,0-.926.2L4.533,6.932a9.14,9.14,0,0,1,1.552-.406,10.174,10.174,0,0,1,5.995.8A12.036,12.036,0,0,1,15.6,9.808Zm-2.746,2.746a9.059,9.059,0,0,0-.975-.837,6.52,6.52,0,0,0-1.121-.625L7.9,10.279a6.2,6.2,0,0,1,2.721.634,9.07,9.07,0,0,1,2.234,1.641Zm1.251,4.679-6.4-6.4a5.287,5.287,0,0,0-1.617.682,7.139,7.139,0,0,0-1.292,1.04L2.746,12.553A9.67,9.67,0,0,1,3.988,11.5a7.4,7.4,0,0,1,1.535-.812l-1.8-1.8a8.993,8.993,0,0,0-1.446.885,12.9,12.9,0,0,0-1.251,1.064L0,9.808A12.313,12.313,0,0,1,1.251,8.687a9.509,9.509,0,0,1,1.365-.894L1.121,6.3l.7-.7L13.777,17.557Zm-5.28-.65-2.4-2.421a3.52,3.52,0,0,1,1.08-.739,3.4,3.4,0,0,1,2.648,0,3.52,3.52,0,0,1,1.08.739Z" transform="translate(0 -5.6)" fill="#fff"/>
</svg>
