<?xml version="1.0" encoding="UTF-8"?><svg id="Layer_1" xmlns="http://www.w3.org/2000/svg" xmlns:xlink="http://www.w3.org/1999/xlink" viewBox="0 0 24 26.67"><defs><style>.cls-1{clip-path:url(#clippath);}.cls-2{fill:none;}.cls-3{fill:#302152;}.cls-4{fill:#0058ff;}</style><clipPath id="clippath"><rect class="cls-2" x="3.73" y="11.79" width="16.53" height="11.08"/></clipPath></defs><path class="cls-3" d="M10.67,16v-2.67h2.67v2.67h-2.67Zm-5.33,0v-2.67h2.67v2.67h-2.67Zm10.67,0v-2.67h2.67v2.67h-2.67Zm-5.33,5.33v-2.67h2.67v2.67h-2.67Zm-5.33,0v-2.67h2.67v2.67h-2.67Zm10.67,0v-2.67h2.67v2.67h-2.67ZM0,26.67V2.67H4V0h2.67V2.67h10.67V0h2.67V2.67h4V26.67H0Zm2.67-2.67H21.33V10.67H2.67v13.33Zm0-16H21.33v-2.67H2.67v2.67Zm0,0v0Z"/><g class="cls-1"><path class="cls-4" d="M10.67,16v-2.67h2.67v2.67h-2.67Zm-5.33,0v-2.67h2.67v2.67h-2.67Zm10.67,0v-2.67h2.67v2.67h-2.67Zm-5.33,5.33v-2.67h2.67v2.67h-2.67Zm-5.33,0v-2.67h2.67v2.67h-2.67Zm10.67,0v-2.67h2.67v2.67h-2.67ZM0,26.67V2.67H4V0h2.67V2.67h10.67V0h2.67V2.67h4V26.67H0Zm2.67-2.67H21.33V10.67H2.67v13.33Zm0-16H21.33v-2.67H2.67v2.67Zm0,0v0Z"/></g></svg>