<svg id="Group_76656" data-name="Group 76656" xmlns="http://www.w3.org/2000/svg" xmlns:xlink="http://www.w3.org/1999/xlink" width="30.782" height="24.682" viewBox="0 0 30.782 24.682">
  <defs>
    <clipPath id="clip-path">
      <rect id="Rectangle_19994" data-name="Rectangle 19994" width="30.782" height="24.682" fill="none"/>
    </clipPath>
  </defs>
  <g id="Group_76655" data-name="Group 76655" clip-path="url(#clip-path)">
    <path id="Path_261" data-name="Path 261" d="M0,1.4A1.814,1.814,0,0,1,.729.341,4.919,4.919,0,0,1,1.646.016a1.05,1.05,0,0,1,.3-.009q10.113,0,20.227.006a2.351,2.351,0,0,1,.907.149,1.6,1.6,0,0,1,1.026,1.528c.017,1.583.008,3.166,0,4.749a.724.724,0,1,1-1.444,0c0-1.5,0-3.006,0-4.509,0-.412-.058-.47-.467-.47H1.91c-.391,0-.46.067-.461.448q0,6.027,0,12.054c0,.372.068.44.437.442.591,0,1.182,0,1.773,0s.856.274.857.868q0,1.533,0,3.066c0,.1,0,.194,0,.375.132-.125.209-.195.282-.268C6.026,17.22,7.256,16,8.473,14.765a1.092,1.092,0,0,1,.879-.364c.34.016.681,0,1.022,0a.735.735,0,0,1,.812.734.676.676,0,0,1-.791.7,1.865,1.865,0,0,0-1.7.743c-1.4,1.457-2.854,2.869-4.282,4.3a.8.8,0,0,1-.835.271.746.746,0,0,1-.507-.8q0-2.074,0-4.148v-.357H2.146A1.845,1.845,0,0,1,0,14.449Z" transform="translate(0 -0.001)"/>
    <path id="Path_262" data-name="Path 262" d="M175.866,122.518v1.314c0,.581,0,1.162,0,1.744a.741.741,0,0,1-1.314.536c-1.117-1.122-2.241-2.236-3.352-3.364a.73.73,0,0,0-.577-.233q-4.3.011-8.6,0a1.738,1.738,0,0,1-1.812-1.4,2.5,2.5,0,0,1-.036-.508q0-4.058,0-8.117a1.744,1.744,0,0,1,1.905-1.905c1.793-.005,3.587,0,5.38,0q4.343,0,8.687,0a1.891,1.891,0,0,1,1.407.487,1.646,1.646,0,0,1,.534,1.2q.008,4.269,0,8.538a1.725,1.725,0,0,1-1.718,1.7c-.157.007-.315,0-.506,0m-1.523,1.339.075-.041c0-.659,0-1.318,0-1.976a.7.7,0,0,1,.733-.771c.33-.015.661-.005.991-.007.447,0,.5-.056.5-.5q0-4,0-7.994c0-.471-.041-.512-.515-.512H162.158c-.5,0-.533.029-.533.523q0,3.952,0,7.9c0,.553.027.581.571.581q4.417,0,8.834,0a1.147,1.147,0,0,1,.9.374c.488.517,1,1.009,1.5,1.513q.454.455.9.913" transform="translate(-147.314 -101.709)"/>
    <path id="Path_263" data-name="Path 263" d="M66.252,59.867q3.244,0,6.488,0c.525,0,.85.283.849.721a.715.715,0,0,1-.608.713,1.694,1.694,0,0,1-.3.016H59.827c-.581,0-.914-.291-.889-.773a.693.693,0,0,1,.617-.666,3.283,3.283,0,0,1,.39-.013h6.308" transform="translate(-54.203 -55.059)"/>
    <path id="Path_264" data-name="Path 264" d="M62.171,121.055c-.811,0-1.622.006-2.433,0a.722.722,0,0,1-.8-.771.7.7,0,0,1,.559-.656,1.52,1.52,0,0,1,.3-.027q2.358,0,4.716,0a1.649,1.649,0,0,1,.3.024.716.716,0,0,1,.031,1.4,1.833,1.833,0,0,1-.387.033c-.761,0-1.522,0-2.283,0" transform="translate(-54.204 -109.994)"/>
    <path id="Path_265" data-name="Path 265" d="M220.768,176.648a.707.707,0,0,1,.719-.718.721.721,0,0,1,.725.719.737.737,0,0,1-.726.725.726.726,0,0,1-.719-.726" transform="translate(-203.04 -161.802)" fill="#7000b9"/>
    <path id="Path_266" data-name="Path 266" d="M264.2,176.65a.722.722,0,1,1-1.444,0,.722.722,0,0,1,1.444,0" transform="translate(-241.656 -161.802)" fill="#7000b9"/>
    <path id="Path_267" data-name="Path 267" d="M305.442,175.932a.709.709,0,0,1,.729.71.722.722,0,1,1-1.444.017.717.717,0,0,1,.715-.727" transform="translate(-280.257 -161.804)" fill="#7000b9"/>
  </g>
</svg>
