<?xml version="1.0" encoding="UTF-8"?><svg id="Layer_1" xmlns="http://www.w3.org/2000/svg" viewBox="0 0 32 32"><defs><style>.cls-1{fill:#2f47c2;}.cls-2{fill:none;}</style></defs><path class="cls-1" d="M28.44,12.47v14.03H3.56V6.94H20.06c-.04-.29-.06-.59-.06-.89,0-.3,.02-.59,.06-.89H3.56c-.98,0-1.78,.8-1.78,1.78V26.49c0,.98,.8,1.78,1.78,1.78H28.44c.98,0,1.78-.8,1.78-1.78V11.68c-.55,.35-1.15,.61-1.78,.78Z"/><path class="cls-1" d="M13.88,14.25l-5.35,7.77-3.6-3.19,.94-1.06,2.4,2.12,5.62-8.17,6,8.9,6-7.93,1.13,.86-7.21,9.52-5.94-8.82Z"/><circle class="cls-1" cx="26.67" cy="6.05" r="4.44"/><path class="cls-2" d="M0,.72H32V32.72H0V.72Z"/></svg>