<?xml version="1.0" encoding="UTF-8"?><svg id="Layer_1" xmlns="http://www.w3.org/2000/svg" viewBox="0 0 48 48"><defs><style>.cls-1{fill:#2f47c2;}.cls-2{stroke:#2f47c2;stroke-miterlimit:10;stroke-width:.81px;}.cls-2,.cls-3{fill:none;}.cls-4{opacity:.1;}.cls-4,.cls-5{fill:#ffb126;}.cls-6{fill:#1d3da0;}.cls-3{stroke:#ffb126;stroke-linecap:round;stroke-linejoin:round;stroke-width:1.45px;}.cls-7{fill:#00b2f5;}</style></defs><circle class="cls-4" cx="25.71" cy="26.14" r="13.23"/><g><path class="cls-5" d="M32.08,14.58l-6.61,11.93,13.51-.15s.07-8.02-6.9-11.79Z"/><polyline class="cls-2" points="32.77 13.6 25.47 26.51 39.1 26.51"/><polygon class="cls-1" points="31.57 13.43 33.32 12.85 33.69 14.54 31.57 13.43"/><polygon class="cls-1" points="39.1 25.31 40.43 26.59 39.11 27.71 39.1 25.31"/></g><g><rect class="cls-7" x="25.25" y="12.23" width=".46" height="2.82" rx=".19" ry=".19"/><rect class="cls-7" x="25.25" y="37.68" width=".46" height="2.82" rx=".19" ry=".19"/><rect class="cls-7" x="12.09" y="24.73" width=".46" height="2.82" rx=".19" ry=".19" transform="translate(38.46 13.81) rotate(90)"/><rect class="cls-7" x="38.4" y="24.73" width=".46" height="2.82" rx=".19" ry=".19" transform="translate(64.77 -12.5) rotate(90)"/></g><g><path class="cls-3" d="M24.91,46.52c-11.88,0-21.51-9.63-21.51-21.51S13.03,3.5,24.91,3.5c3.68,0,7.14,.92,10.17,2.55"/><polygon class="cls-6" points="38.52 9.64 36.9 3.64 32.52 8.04 38.52 9.64 36.9 3.64 32.52 8.04 38.52 9.64"/></g><g><path class="cls-6" d="M42.31,26.53c-.47,0-.86-.39-.86-.86,0-3.42-1.07-6.69-3.1-9.44l1.32-1.1c2.29,3.07,3.49,6.71,3.49,10.54,0,.47-.39,.86-.86,.86Z"/><path class="cls-6" d="M31.1,10.73c-1.8-.68-3.69-1.03-5.62-1.03s-3.82,.35-5.62,1.03l-.58-1.62c1.99-.75,4.07-1.13,6.2-1.13s4.21,.38,6.2,1.13l-.58,1.62Z"/><path class="cls-7" d="M8.65,26.53c-.47,0-.86-.39-.86-.86,0-3.83,1.21-7.47,3.49-10.54l1.32,1.1c-2.03,2.76-3.1,6.02-3.1,9.44,0,.47-.39,.86-.86,.86Z"/><path class="cls-7" d="M11.51,14.84c1.94-2.5,4.5-4.43,7.43-5.6l.58,1.62c-2.64,1.07-4.95,2.82-6.69,5.08l-1.32-1.1Z"/><path class="cls-6" d="M38.13,15.94c-1.74-2.26-4.05-4.01-6.69-5.08l.58-1.62c2.93,1.17,5.49,3.1,7.43,5.6l-1.32,1.1Z"/></g></svg>