<svg xmlns="http://www.w3.org/2000/svg" width="24.576" height="24.576" viewBox="0 0 24.576 24.576">
  <path id="check-bt" d="M14.476,21.879l8.694-8.694L21.756,11.8l-7.281,7.281L10.789,15.4,9.407,16.78Zm1.812,6.7a11.89,11.89,0,0,1-4.762-.968A12.38,12.38,0,0,1,4.968,21.05a12.275,12.275,0,0,1,0-9.554,12.281,12.281,0,0,1,2.642-3.9,12.6,12.6,0,0,1,3.917-2.627,12.275,12.275,0,0,1,9.554,0A12.269,12.269,0,0,1,27.608,11.5a12.275,12.275,0,0,1,0,9.554,12.6,12.6,0,0,1-2.627,3.917,12.28,12.28,0,0,1-3.9,2.642A11.966,11.966,0,0,1,16.288,28.576Zm0-1.843a10.051,10.051,0,0,0,7.4-3.057,10.091,10.091,0,0,0,3.041-7.388,10.076,10.076,0,0,0-3.041-7.4,10.076,10.076,0,0,0-7.4-3.041A10.091,10.091,0,0,0,8.9,8.885a10.051,10.051,0,0,0-3.057,7.4A10.065,10.065,0,0,0,8.9,23.676,10.065,10.065,0,0,0,16.288,26.733ZM16.288,16.288Z" transform="translate(-4 -4)" fill="#90bc36"/>
</svg>
