<svg xmlns="http://www.w3.org/2000/svg" width="32" height="32" viewBox="0 0 32 32">
  <g id="close-btn" transform="translate(-1365 -102)">
    <rect id="Rectangle_11255" data-name="Rectangle 11255" width="32" height="32" rx="8" transform="translate(1365 102)" fill="#efeff0"/>
    <g id="close_black_24dp" transform="translate(1369 106)">
      <path id="Path_54267" data-name="Path 54267" d="M0,0H24V24H0Z" fill="none"/>
      <path id="Path_54268" data-name="Path 54268" d="M18.3,5.71a1,1,0,0,0-1.41,0L12,10.59,7.11,5.7A1,1,0,0,0,5.7,7.11L10.59,12,5.7,16.89A1,1,0,0,0,7.11,18.3L12,13.41l4.89,4.89a1,1,0,0,0,1.41-1.41L13.41,12,18.3,7.11A1,1,0,0,0,18.3,5.71Z" fill="#1f2742"/>
    </g>
  </g>
</svg>
