<svg xmlns="http://www.w3.org/2000/svg" xmlns:xlink="http://www.w3.org/1999/xlink" width="76" height="76" viewBox="0 0 76 76">
  <defs>
    <clipPath id="clip-path">
      <rect id="Rectangle_20144" data-name="Rectangle 20144" width="41.272" height="32.831" fill="none"/>
    </clipPath>
  </defs>
  <g id="Group_77008" data-name="Group 77008" transform="translate(-160 -39.302)">
    <circle id="Ellipse_102" data-name="Ellipse 102" cx="38" cy="38" r="38" transform="translate(160 39.302)" fill="#f0eff3" opacity="0"/>
    <g id="Group_76987" data-name="Group 76987" transform="translate(177.364 56.302)">
      <g id="Group_76987-2" data-name="Group 76987" clip-path="url(#clip-path)">
        <path id="Path_1225" data-name="Path 1225" d="M321.111,121.675c-.157,1.073-.267,2.155-.479,3.216a20.035,20.035,0,0,1-3,7.109,1.58,1.58,0,0,1-2.051.6q-1.721-.781-3.412-1.628a1.573,1.573,0,0,1-.738-2.123,1.61,1.61,0,0,1,2.117-.773c.359.15.7.33,1.056.5l1.12.529c.454-1.106.972-2.154,1.319-3.255a17.066,17.066,0,0,0-.605-12.187,1.84,1.84,0,0,1-.117-1.479,1.585,1.585,0,0,1,1.466-1.013,1.515,1.515,0,0,1,1.53,1.034,37.109,37.109,0,0,1,1.2,3.577c.269,1.046.352,2.139.518,3.211.018.117.047.233.071.35Z" transform="translate(-279.839 -99.939)" fill="#302152"/>
        <path id="Path_1226" data-name="Path 1226" d="M5.8,11.58c.725.349,1.454.684,2.169,1.047a1.607,1.607,0,1,1-1.343,2.919c-.662-.293-1.31-.619-1.964-.929-.094-.044-.189-.085-.319-.143A17.436,17.436,0,0,0,5.426,29.12c.642-.312,1.254-.606,1.863-.907a1.681,1.681,0,0,1,1.476-.089,1.533,1.533,0,0,1,.967,1.333,1.419,1.419,0,0,1-.724,1.47c-1.2.63-2.415,1.228-3.651,1.779a1.522,1.522,0,0,1-1.917-.682,20.466,20.466,0,0,1-3.3-9.063A19.948,19.948,0,0,1,3.265,9.512,20.129,20.129,0,0,1,17.305.288,20.246,20.246,0,0,1,28.963,1.759a1.62,1.62,0,0,1,1.095,1.58,1.557,1.557,0,0,1-.995,1.44,1.9,1.9,0,0,1-1.408-.057c-1.219-.406-2.443-.8-3.679-1.147a15.213,15.213,0,0,0-1.733-.283c0,.235,0,.429,0,.622,0,.564,0,1.129,0,1.693a1.616,1.616,0,1,1-3.223-.019c0-.712,0-1.424,0-2.136A.346.346,0,0,0,19,3.375,17.07,17.07,0,0,0,5.8,11.58" transform="translate(0 0.001)" fill="#302152"/>
        <path id="Path_1227" data-name="Path 1227" d="M161.355,76.522a4.867,4.867,0,0,1-4.607-2.96,4.71,4.71,0,0,1,1-5.214,24.945,24.945,0,0,1,2.821-2.2c4.285-3.007,8.588-5.988,12.882-8.982a1.638,1.638,0,0,1,1.85-.167,1.468,1.468,0,0,1,.808,1.466,1.9,1.9,0,0,1-.315.893q-5.149,7.38-10.327,14.741a5.125,5.125,0,0,1-3.374,2.347c-.29.049-.586.065-.733.081m6.767-11.775c-.823.578-1.56,1.084-2.285,1.607q-2.777,2-5.544,4.019a1.536,1.536,0,0,0-.663,1.618,1.506,1.506,0,0,0,1.171,1.251,1.526,1.526,0,0,0,1.709-.614q2.76-3.82,5.5-7.652a2.179,2.179,0,0,0,.11-.229" transform="translate(-140.574 -51.047)" fill="#7000b9"/>
      </g>
    </g>
  </g>
</svg>
