<?xml version="1.0" encoding="UTF-8"?><svg id="Layer_1" xmlns="http://www.w3.org/2000/svg" viewBox="0 0 48 48"><defs><style>.cls-1{fill:#fff;}.cls-2{fill:#2f47c2;}.cls-3{stroke:#2f47c2;stroke-miterlimit:10;stroke-width:.81px;}.cls-3,.cls-4{fill:none;}.cls-5{opacity:.1;}.cls-5,.cls-6{fill:#ffb126;}.cls-4{stroke:#1d3da0;stroke-linecap:round;stroke-linejoin:round;stroke-width:2.07px;}.cls-7{fill:#00b2f5;}</style></defs><circle class="cls-5" cx="24.25" cy="23.47" r="12.69" transform="translate(-7.02 10.78) rotate(-21.97)"/><circle class="cls-4" cx="24.25" cy="23.36" r="16.4"/><rect class="cls-7" x="24.02" y="9.39" width=".46" height="2.81" rx=".18" ry=".18"/><rect class="cls-7" x="24.02" y="34.74" width=".46" height="2.81" rx=".18" ry=".18"/><rect class="cls-7" x="10.91" y="21.84" width=".46" height="2.81" rx=".18" ry=".18" transform="translate(34.39 12.1) rotate(90)"/><rect class="cls-7" x="37.12" y="21.84" width=".46" height="2.81" rx=".18" ry=".18" transform="translate(60.59 -14.11) rotate(90)"/><path class="cls-6" d="M27.06,5.36c-.45-1.25-1.64-2.14-3.04-2.14s-2.59,.89-3.04,2.14c.99-.18,2-.28,3.04-.28s2.05,.1,3.04,.28Z"/><g><path class="cls-6" d="M24.04,10.94l-.03,13.64,11.77-6.65s-3.81-7.06-11.74-6.99Z"/><polyline class="cls-3" points="24.17 9.75 24.01 24.58 35.95 18"/><polygon class="cls-2" points="23.04 10.18 24.3 8.83 25.43 10.13 23.04 10.18"/><polygon class="cls-2" points="35.37 16.95 37.15 17.43 36.53 19.05 35.37 16.95"/></g><circle class="cls-1" cx="24.7" cy="23.01" r="6.07"/><polygon class="cls-6" points="23.81 25.69 28.28 21.22 27.39 20.33 23.81 23.92 22 22.11 21.11 23 23.81 25.69"/></svg>