<svg xmlns="http://www.w3.org/2000/svg" xmlns:xlink="http://www.w3.org/1999/xlink" width="90" height="120.755" viewBox="0 0 90 120.755">
  <defs>
    <clipPath id="clip-path">
      <path id="Path_60725" data-name="Path 60725" d="M977.024,1152.741c3.835-.659,6.788-2.109,6.594-3.237s-3.46-1.508-7.3-.849-6.788,2.109-6.594,3.237,3.46,1.508,7.3.849" transform="translate(-969.719 -1148.332)"/>
    </clipPath>
    <radialGradient id="radial-gradient" cx="0.499" cy="0.5" r="0.117" gradientTransform="matrix(0.162, 0.986, -3.212, 0.576, 24.226, 5.715)" gradientUnits="objectBoundingBox">
      <stop offset="0" stop-color="#4378bb"/>
      <stop offset="0.049" stop-color="#5988c3"/>
      <stop offset="0.163" stop-color="#85a7d3"/>
      <stop offset="0.282" stop-color="#aac2e0"/>
      <stop offset="0.404" stop-color="#c9d8eb"/>
      <stop offset="0.532" stop-color="#e1e9f4"/>
      <stop offset="0.668" stop-color="#f2f6fa"/>
      <stop offset="0.816" stop-color="#fcfdfe"/>
      <stop offset="1" stop-color="#fff"/>
    </radialGradient>
    <clipPath id="clip-path-2">
      <path id="Path_60727" data-name="Path 60727" d="M1012.687,1184.551l-6.537,1.124,1.124,6.537a3.315,3.315,0,0,0,3.83,2.706l6.537-1.124-1.124-6.537a3.3,3.3,0,0,0-1.355-2.147,3.34,3.34,0,0,0-.582-.329,3.305,3.305,0,0,0-1.893-.23" transform="translate(-1006.15 -1184.502)"/>
    </clipPath>
    <linearGradient id="linear-gradient" x1="-1.4" y1="1.74" x2="-0.457" y2="1.74" gradientUnits="objectBoundingBox">
      <stop offset="0" stop-color="#95be36"/>
      <stop offset="0.116" stop-color="#83ae59"/>
      <stop offset="1" stop-color="#006866"/>
    </linearGradient>
    <clipPath id="clip-path-4">
      <path id="Path_60731" data-name="Path 60731" d="M1013.563,1204.585l-2.449.421a3.316,3.316,0,0,1-3.83-2.7l-1.124-6.538,3.268-.562c1.321-.228,3.146,3.941,4.135,9.383" transform="translate(-1006.16 -1195.192)"/>
    </clipPath>
    <linearGradient id="linear-gradient-2" x1="-2.489" y1="8.724" x2="-2.484" y2="8.724" gradientUnits="objectBoundingBox">
      <stop offset="0" stop-color="#fff"/>
      <stop offset="0.062" stop-color="#dadada"/>
      <stop offset="0.159" stop-color="#a8a8a8"/>
      <stop offset="0.261" stop-color="#7b7b7b"/>
      <stop offset="0.365" stop-color="#565656"/>
      <stop offset="0.474" stop-color="#373737"/>
      <stop offset="0.586" stop-color="#1f1f1f"/>
      <stop offset="0.706" stop-color="#0e0e0e"/>
      <stop offset="0.836" stop-color="#040404"/>
      <stop offset="1" stop-color="#010101"/>
    </linearGradient>
    <clipPath id="clip-path-5">
      <path id="Path_60734" data-name="Path 60734" d="M858.03,1036.285a.894.894,0,0,0-1.213-.354l-1.567.859.859,1.567a.894.894,0,0,0,1.213.354l1.567-.859Z" transform="translate(-855.25 -1035.821)"/>
    </clipPath>
    <linearGradient id="linear-gradient-3" x1="-31.11" y1="-1.203" x2="-29.972" y2="-1.203" xlink:href="#linear-gradient"/>
    <clipPath id="clip-path-6">
      <path id="Path_60736" data-name="Path 60736" d="M848.127,1024.717c.919-.5,1.545-1.132,1.4-1.4s-1.014-.081-1.933.423-1.545,1.132-1.4,1.4,1.014.082,1.933-.423" transform="translate(-846.172 -1023.192)"/>
    </clipPath>
    <radialGradient id="radial-gradient-2" cx="0.499" cy="0.501" r="0.14" gradientTransform="matrix(0.409, 0.877, -2.537, 1.634, 83.679, -11.743)" xlink:href="#radial-gradient"/>
    <clipPath id="clip-path-7">
      <path id="Path_60738" data-name="Path 60738" d="M857.919,1047.078l-.587.322a.893.893,0,0,1-1.212-.353l-.859-1.567.783-.429c.316-.174,1.147.728,1.875,2.028" transform="translate(-855.26 -1045.029)"/>
    </clipPath>
    <linearGradient id="linear-gradient-4" x1="-10.2" y1="38.241" x2="-10.182" y2="38.241" xlink:href="#linear-gradient-2"/>
    <clipPath id="clip-path-8">
      <path id="Path_60741" data-name="Path 60741" d="M871.249,1213.943a1.188,1.188,0,0,0,.1,1.678l1.782,1.575,1.575-1.782a1.19,1.19,0,0,0-.1-1.679l-1.782-1.575Z" transform="translate(-870.951 -1212.16)"/>
    </clipPath>
    <linearGradient id="linear-gradient-5" x1="0" y1="0.5" x2="1" y2="0.5" xlink:href="#linear-gradient"/>
    <clipPath id="clip-path-9">
      <path id="Path_60743" data-name="Path 60743" d="M894.672,1204.141c1.046.924,2.114,1.424,2.386,1.117s-.356-1.306-1.4-2.231-2.114-1.424-2.386-1.117.356,1.307,1.4,2.231" transform="translate(-893.207 -1201.82)"/>
    </clipPath>
    <radialGradient id="radial-gradient-3" cx="0.5" cy="0.5" r="0.09" gradientTransform="matrix(-0.662, 0.749, -2.547, -2.252, 35.044, 57.878)" xlink:href="#radial-gradient"/>
    <clipPath id="clip-path-10">
      <path id="Path_60745" data-name="Path 60745" d="M872.028,1216.23l-.668-.59a1.189,1.189,0,0,1-.1-1.678l1.576-1.783.891.787c.36.318-.4,1.765-1.7,3.263" transform="translate(-870.959 -1212.18)"/>
    </clipPath>
    <linearGradient id="linear-gradient-6" x1="-4.717" y1="19.019" x2="-4.711" y2="19.019" xlink:href="#linear-gradient-2"/>
    <clipPath id="clip-path-11">
      <path id="Path_60748" data-name="Path 60748" d="M765.251,1195.844a.806.806,0,0,0-.28,1.1l.824,1.385,1.385-.824a.806.806,0,0,0,.28-1.1l-.824-1.385Z" transform="translate(-764.858 -1195.02)"/>
    </clipPath>
    <linearGradient id="linear-gradient-7" x1="0" y1="0.5" x2="1" y2="0.5" xlink:href="#linear-gradient"/>
    <clipPath id="clip-path-12">
      <rect id="Rectangle_148203" data-name="Rectangle 148203" width="1.013" height="3.423" transform="translate(0 0.492) rotate(-29.051)"/>
    </clipPath>
    <clipPath id="clip-path-13">
      <path id="Path_60750" data-name="Path 60750" d="M790.617,1188.689c.483.813,1.069,1.357,1.308,1.214s.041-.916-.443-1.729-1.069-1.357-1.308-1.214-.041.916.443,1.729" transform="translate(-790.073 -1186.938)"/>
    </clipPath>
    <radialGradient id="radial-gradient-4" cx="0.499" cy="0.499" r="0.141" gradientTransform="matrix(-1.108, 0.511, -2.241, -2.922, 61.573, 157.528)" xlink:href="#radial-gradient"/>
    <clipPath id="clip-path-14">
      <rect id="Rectangle_148204" data-name="Rectangle 148204" width="2.416" height="1.48" transform="translate(0 1.173) rotate(-29.059)"/>
    </clipPath>
    <clipPath id="clip-path-15">
      <path id="Path_60752" data-name="Path 60752" d="M765.28,1197.477l-.309-.519a.806.806,0,0,1,.28-1.1l1.385-.824.412.693c.167.279-.62,1.056-1.769,1.754" transform="translate(-764.858 -1195.03)"/>
    </clipPath>
    <linearGradient id="linear-gradient-8" x1="-9.673" y1="52.172" x2="-9.652" y2="52.172" xlink:href="#linear-gradient-2"/>
    <clipPath id="clip-path-16">
      <path id="Path_60755" data-name="Path 60755" d="M745.758,847.751a1.134,1.134,0,0,0-.752.438L743.63,850l1.809,1.376a1.137,1.137,0,0,0,1.593-.217l1.376-1.809-1.81-1.376a1.131,1.131,0,0,0-.686-.232,1.3,1.3,0,0,0-.154.011" transform="translate(-743.63 -847.74)"/>
    </clipPath>
    <linearGradient id="linear-gradient-9" x1="-4.999" y1="29.783" x2="-4.993" y2="29.783" gradientUnits="objectBoundingBox">
      <stop offset="0" stop-color="#95be36"/>
      <stop offset="0.116" stop-color="#95be36"/>
      <stop offset="1" stop-color="#579d3d"/>
    </linearGradient>
    <clipPath id="clip-path-17">
      <rect id="Rectangle_148205" data-name="Rectangle 148205" width="3.136" height="3.941"/>
    </clipPath>
    <clipPath id="clip-path-18">
      <path id="Path_60757" data-name="Path 60757" d="M736.26,831.159c.808-1.062,1.209-2.115.9-2.353s-1.22.431-2.027,1.492-1.209,2.115-.9,2.353,1.22-.431,2.027-1.492" transform="translate(-734.126 -828.758)"/>
    </clipPath>
    <radialGradient id="radial-gradient-5" cx="0.501" cy="0.498" r="0.092" gradientTransform="matrix(0.799, 0.605, -2.065, 2.706, 41.132, -32.235)" xlink:href="#radial-gradient"/>
    <clipPath id="clip-path-19">
      <rect id="Rectangle_148206" data-name="Rectangle 148206" width="3.918" height="2.618"/>
    </clipPath>
    <clipPath id="clip-path-20">
      <path id="Path_60760" data-name="Path 60760" d="M747.539,871.406l-.516.678a1.137,1.137,0,0,1-1.593.217l-1.81-1.376.688-.9c.279-.365,1.711.253,3.231,1.386" transform="translate(-743.62 -869.915)"/>
    </clipPath>
    <linearGradient id="linear-gradient-10" x1="-4.375" y1="23.474" x2="-4.369" y2="23.474" xlink:href="#linear-gradient-2"/>
    <clipPath id="clip-path-21">
      <path id="Path_60763" data-name="Path 60763" d="M610.516,578.107a3.255,3.255,0,0,0-.354,4.591l4.237,4.944,4.944-4.237a3.256,3.256,0,0,0,.354-4.591l-4.237-4.944Z" transform="translate(-609.378 -573.87)"/>
    </clipPath>
    <linearGradient id="linear-gradient-11" x1="-1.657" y1="11.157" x2="-1.652" y2="11.157" xlink:href="#linear-gradient-9"/>
    <clipPath id="clip-path-22">
      <rect id="Rectangle_148207" data-name="Rectangle 148207" width="9.522" height="10.839"/>
    </clipPath>
    <clipPath id="clip-path-23">
      <path id="Path_60765" data-name="Path 60765" d="M563.866,660.444c-2.486-2.9-5.194-4.661-6.047-3.93s.47,3.676,2.957,6.577,5.194,4.661,6.047,3.93-.47-3.676-2.957-6.577" transform="translate(-557.56 -656.349)"/>
    </clipPath>
    <radialGradient id="radial-gradient-6" cx="0.501" cy="0.501" r="0.09" gradientTransform="matrix(0.76, -0.651, 2.214, 2.582, -16.893, -12.334)" xlink:href="#radial-gradient"/>
    <clipPath id="clip-path-24">
      <rect id="Rectangle_148208" data-name="Rectangle 148208" width="8.364" height="10.68"/>
    </clipPath>
    <clipPath id="clip-path-25">
      <path id="Path_60768" data-name="Path 60768" d="M664,628.77l1.587,1.853a3.256,3.256,0,0,1-.352,4.589l-4.947,4.239-2.119-2.472c-.855-1,1.74-4.636,5.83-8.209" transform="translate(-658.006 -628.77)"/>
    </clipPath>
    <linearGradient id="linear-gradient-12" x1="-1.017" y1="8.705" x2="-1.014" y2="8.705" xlink:href="#linear-gradient-2"/>
    <clipPath id="clip-path-26">
      <path id="Path_60774" data-name="Path 60774" d="M1259.6,949.47l-1.488-1.28-1.28,1.488a.981.981,0,0,0,.1,1.384l1.488,1.28,1.28-1.487a.981.981,0,0,0,.016-1.26.955.955,0,0,0-.119-.124" transform="translate(-1256.59 -948.19)"/>
    </clipPath>
    <linearGradient id="linear-gradient-13" x1="-12.226" y1="30.567" x2="-12.241" y2="30.568" gradientUnits="objectBoundingBox">
      <stop offset="0" stop-color="#de3529"/>
      <stop offset="0.576" stop-color="#faaa2c"/>
      <stop offset="1" stop-color="#de3529"/>
    </linearGradient>
    <clipPath id="clip-path-27">
      <rect id="Rectangle_148209" data-name="Rectangle 148209" width="4.112" height="1.41" transform="translate(0 2.603) rotate(-39.274)"/>
    </clipPath>
    <clipPath id="clip-path-28">
      <path id="Path_60776" data-name="Path 60776" d="M1281.563,974.376c.751-.873,1.568-1.4,1.825-1.18s-.144,1.108-.895,1.981-1.568,1.4-1.825,1.181.144-1.108.895-1.981" transform="translate(-1280.591 -973.146)"/>
    </clipPath>
    <radialGradient id="radial-gradient-7" cx="0.499" cy="0.501" r="0.126" gradientTransform="matrix(-0.795, -0.652, -2.324, 2.577, 48.97, -55.34)" xlink:href="#radial-gradient"/>
    <clipPath id="clip-path-29">
      <rect id="Rectangle_148210" data-name="Rectangle 148210" width="1.689" height="3.197" transform="translate(0 1.069) rotate(-39.274)"/>
    </clipPath>
    <clipPath id="clip-path-30">
      <path id="Path_60779" data-name="Path 60779" d="M1257.308,964.72l-.48.557a.982.982,0,0,0,.1,1.384l1.488,1.28.64-.744c.259-.3-.521-1.4-1.751-2.477" transform="translate(-1256.59 -964.72)"/>
    </clipPath>
    <linearGradient id="linear-gradient-14" x1="-14.297" y1="36.272" x2="-14.281" y2="36.272" xlink:href="#linear-gradient-2"/>
    <clipPath id="clip-path-31">
      <path id="Path_60782" data-name="Path 60782" d="M1149.753,926.422l-.389-.982-.982.389a.527.527,0,0,0-.3.685l.389.982.982-.389a.528.528,0,0,0,.328-.568.521.521,0,0,0-.031-.117" transform="translate(-1148.048 -925.44)"/>
    </clipPath>
    <linearGradient id="linear-gradient-15" x1="-15.501" y1="46.206" x2="-15.477" y2="46.217" xlink:href="#linear-gradient-13"/>
    <clipPath id="clip-path-32">
      <rect id="Rectangle_148211" data-name="Rectangle 148211" width="2.19" height="0.82" transform="translate(0 0.324) rotate(-8.505)"/>
    </clipPath>
    <clipPath id="clip-path-33">
      <path id="Path_60784" data-name="Path 60784" d="M1140.855,922.286c-.576.228-1.1.275-1.165.106s.346-.492.922-.72,1.1-.275,1.165-.106-.346.492-.922.72" transform="translate(-1139.683 -921.465)"/>
    </clipPath>
    <radialGradient id="radial-gradient-8" cx="0.501" cy="0.499" r="0.15" gradientTransform="matrix(0.293, 0.93, 2.516, -1.251, -189.605, 176.624)" xlink:href="#radial-gradient"/>
    <clipPath id="clip-path-34">
      <rect id="Rectangle_148212" data-name="Rectangle 148212" width="0.93" height="1.751" transform="translate(0 0.138) rotate(-8.505)"/>
    </clipPath>
    <clipPath id="clip-path-35">
      <path id="Path_60787" data-name="Path 60787" d="M1161.183,927.252l.368-.145a.528.528,0,0,0,.3-.685l-.389-.982-.49.194c-.2.078-.1.8.214,1.618" transform="translate(-1160.865 -925.44)"/>
    </clipPath>
    <linearGradient id="linear-gradient-16" x1="-26.584" y1="67.547" x2="-26.551" y2="67.547" xlink:href="#linear-gradient-2"/>
    <linearGradient id="linear-gradient-17" x1="0.801" y1="0.061" x2="1.043" y2="-0.774" xlink:href="#linear-gradient-13"/>
    <radialGradient id="radial-gradient-9" cx="0.501" cy="0.501" r="0.112" gradientTransform="matrix(0.964, -0.499, -1.885, -2.947, 15.198, 30.383)" xlink:href="#radial-gradient"/>
    <clipPath id="clip-path-36">
      <path id="Path_60793" data-name="Path 60793" d="M1383.579,885.82l-1.273-2.215a3.409,3.409,0,0,0-4.653-1.257l-5.912,3.4,1.7,2.955c.686,1.195,5.183-.1,10.139-2.884" transform="translate(-1371.74 -881.895)"/>
    </clipPath>
    <linearGradient id="linear-gradient-18" x1="-3.819" y1="10.295" x2="-3.815" y2="10.295" xlink:href="#linear-gradient-2"/>
    <radialGradient id="radial-gradient-10" cx="0.502" cy="0.5" r="0.199" gradientTransform="matrix(0.052, 0.997, 2.219, -0.272, -43.748, 25.897)" xlink:href="#radial-gradient"/>
    <clipPath id="clip-path-37">
      <path id="Path_60798" data-name="Path 60798" d="M473.871,1417.146a2.116,2.116,0,0,0,1.939-2.278l-.338-4.218-4.218.339a2.115,2.115,0,0,0-1.939,2.278l.339,4.218Z" transform="translate(-469.308 -1410.65)"/>
    </clipPath>
    <linearGradient id="linear-gradient-19" x1="-0.722" y1="8.996" x2="-0.719" y2="8.996" gradientUnits="objectBoundingBox">
      <stop offset="0" stop-color="#cddb28"/>
      <stop offset="0.116" stop-color="#cddb28"/>
      <stop offset="1" stop-color="#97c93c"/>
    </linearGradient>
    <clipPath id="clip-path-38">
      <rect id="Rectangle_148213" data-name="Rectangle 148213" width="5.146" height="5.854" transform="matrix(0.947, -0.322, 0.322, 0.947, 0, 1.659)"/>
    </clipPath>
    <clipPath id="clip-path-39">
      <path id="Path_60801" data-name="Path 60801" d="M521.912,1417.283l1.581-.127a2.116,2.116,0,0,0,1.939-2.277l-.339-4.219-.576.046c-.853.069-2.855,3.057-2.606,6.577" transform="translate(-521.891 -1410.66)"/>
    </clipPath>
    <linearGradient id="linear-gradient-20" x1="-2.222" y1="16.331" x2="-2.216" y2="16.331" xlink:href="#linear-gradient-2"/>
    <radialGradient id="radial-gradient-11" cx="0.5" cy="0.504" r="0.132" gradientTransform="matrix(-1.574, 0.046, 0.249, 3.396, -18.485, -62.976)" xlink:href="#radial-gradient"/>
    <clipPath id="clip-path-40">
      <path id="Path_60805" data-name="Path 60805" d="M521.916,1348.618a1.037,1.037,0,0,0,1.085.988l2.072-.1-.1-2.072a1.036,1.036,0,0,0-1.084-.987l-2.072.1Z" transform="translate(-521.82 -1346.45)"/>
    </clipPath>
    <linearGradient id="linear-gradient-21" x1="-2.253" y1="18.383" x2="-2.25" y2="18.383" xlink:href="#linear-gradient-19"/>
    <clipPath id="clip-path-41">
      <rect id="Rectangle_148214" data-name="Rectangle 148214" width="2.869" height="2.522" transform="translate(0 0.833) rotate(-16.882)"/>
    </clipPath>
    <clipPath id="clip-path-42">
      <path id="Path_60808" data-name="Path 60808" d="M522.88,1371.132l.036.777a1.037,1.037,0,0,0,1.083.988l2.072-.1-.013-.283c-.019-.419-1.45-1.449-3.179-1.385" transform="translate(-522.88 -1371.129)"/>
    </clipPath>
    <linearGradient id="linear-gradient-22" x1="-4.222" y1="37.227" x2="-4.217" y2="37.227" xlink:href="#linear-gradient-2"/>
    <clipPath id="clip-path-43">
      <path id="Path_60811" data-name="Path 60811" d="M595.744,1066.216a.812.812,0,0,0,.622-.033l1.469-.7-.7-1.469a.813.813,0,0,0-1.085-.385l-1.469.7.7,1.469a.808.808,0,0,0,.361.373.723.723,0,0,0,.1.045" transform="translate(-594.58 -1063.549)"/>
    </clipPath>
    <linearGradient id="linear-gradient-23" x1="-5.539" y1="32.89" x2="-5.533" y2="32.89" xlink:href="#linear-gradient-9"/>
    <clipPath id="clip-path-44">
      <rect id="Rectangle_148215" data-name="Rectangle 148215" width="2.822" height="2.245" transform="matrix(0.458, -0.889, 0.889, 0.458, 0, 2.509)"/>
    </clipPath>
    <clipPath id="clip-path-45">
      <path id="Path_60813" data-name="Path 60813" d="M606.184,1092.1c-.862.411-1.462.95-1.342,1.2s.918.125,1.78-.286,1.463-.95,1.342-1.2-.918-.126-1.78.285" transform="translate(-604.827 -1091.681)"/>
    </clipPath>
    <radialGradient id="radial-gradient-12" cx="0.502" cy="0.499" r="0.097" gradientTransform="matrix(-0.427, -0.903, 3.04, -1.464, -77.669, 66.911)" xlink:href="#radial-gradient"/>
    <clipPath id="clip-path-46">
      <rect id="Rectangle_148216" data-name="Rectangle 148216" width="1.875" height="2.806" transform="matrix(0.458, -0.889, 0.889, 0.458, 0, 1.667)"/>
    </clipPath>
    <clipPath id="clip-path-47">
      <path id="Path_60816" data-name="Path 60816" d="M610.9,1063.9l.551-.262a.813.813,0,0,1,1.085.384l.7,1.47-.734.35c-.3.141-1.006-.722-1.6-1.942" transform="translate(-610.9 -1063.559)"/>
    </clipPath>
    <linearGradient id="linear-gradient-24" x1="-5.89" y1="28.778" x2="-5.884" y2="28.778" xlink:href="#linear-gradient-2"/>
    <radialGradient id="radial-gradient-13" cx="0.498" cy="0.498" r="0.119" gradientTransform="matrix(0.722, -0.697, -2.387, -2.438, 63.697, 89.274)" xlink:href="#radial-gradient"/>
    <clipPath id="clip-path-48">
      <path id="Path_60820" data-name="Path 60820" d="M758.734,1541.05a.83.83,0,0,0-1.174-.016l-1.19,1.157,1.157,1.19a.83.83,0,0,0,1.174.016l1.19-1.157Z" transform="translate(-756.37 -1540.798)"/>
    </clipPath>
    <linearGradient id="linear-gradient-25" x1="-6.925" y1="29.136" x2="-6.921" y2="29.136" xlink:href="#linear-gradient-19"/>
    <clipPath id="clip-path-49">
      <rect id="Rectangle_148217" data-name="Rectangle 148217" width="2.296" height="2.018" transform="matrix(0.524, -0.852, 0.852, 0.524, 0, 1.956)"/>
    </clipPath>
    <clipPath id="clip-path-50">
      <path id="Path_60823" data-name="Path 60823" d="M759.167,1541.5l-.434-.446a.83.83,0,0,0-1.173-.017l-1.19,1.157.158.162c.234.24,1.638.1,2.639-.856" transform="translate(-756.37 -1540.798)"/>
    </clipPath>
    <linearGradient id="linear-gradient-26" x1="-6.468" y1="31.395" x2="-6.464" y2="31.395" xlink:href="#linear-gradient-2"/>
    <clipPath id="clip-path-51">
      <path id="Path_60826" data-name="Path 60826" d="M1163.446,689.7a.928.928,0,0,0-1.285.262l-1.021,1.546,1.546,1.022a.927.927,0,0,0,1.284-.262l1.022-1.546Z" transform="translate(-1161.14 -689.543)"/>
    </clipPath>
    <linearGradient id="linear-gradient-27" x1="-10.983" y1="38.689" x2="-10.979" y2="38.689" gradientUnits="objectBoundingBox">
      <stop offset="0" stop-color="#ffe800"/>
      <stop offset="0.234" stop-color="#ffc200"/>
      <stop offset="0.997" stop-color="#ffa12a"/>
    </linearGradient>
    <clipPath id="clip-path-52">
      <rect id="Rectangle_148218" data-name="Rectangle 148218" width="3.085" height="2.71" transform="translate(0 0.848) rotate(-15.956)"/>
    </clipPath>
    <clipPath id="clip-path-53">
      <path id="Path_60828" data-name="Path 60828" d="M1155.321,676.062c.6-.908.869-1.786.6-1.962s-.969.416-1.569,1.324-.869,1.786-.6,1.963.969-.417,1.568-1.324" transform="translate(-1153.649 -674.069)"/>
    </clipPath>
    <radialGradient id="radial-gradient-14" cx="0.498" cy="0.503" r="0.092" gradientTransform="matrix(0.836, 0.551, -1.878, 2.837, 48.371, -43.961)" xlink:href="#radial-gradient"/>
    <clipPath id="clip-path-54">
      <rect id="Rectangle_148219" data-name="Rectangle 148219" width="3.04" height="2.381" transform="translate(0 0.836) rotate(-15.956)"/>
    </clipPath>
    <clipPath id="clip-path-55">
      <path id="Path_60831" data-name="Path 60831" d="M1164.354,709.9l-.383.579a.927.927,0,0,1-1.284.262l-1.547-1.022.511-.773c.207-.312,1.405.113,2.7.953" transform="translate(-1161.14 -708.839)"/>
    </clipPath>
    <linearGradient id="linear-gradient-28" x1="-9.224" y1="30.048" x2="-9.221" y2="30.048" xlink:href="#linear-gradient-2"/>
    <clipPath id="clip-path-56">
      <path id="Path_60834" data-name="Path 60834" d="M993.645,798.229a.56.56,0,0,0-.777.159l-.618.935.935.618a.56.56,0,0,0,.777-.159l.618-.935Z" transform="translate(-992.25 -798.136)"/>
    </clipPath>
    <linearGradient id="linear-gradient-29" x1="-14.896" y1="61.478" x2="-14.892" y2="61.478" xlink:href="#linear-gradient-27"/>
    <clipPath id="clip-path-57">
      <rect id="Rectangle_148220" data-name="Rectangle 148220" width="1.866" height="1.64" transform="translate(0 0.513) rotate(-15.956)"/>
    </clipPath>
    <clipPath id="clip-path-58">
      <path id="Path_60836" data-name="Path 60836" d="M988.724,789.993c.363-.549.526-1.081.364-1.187s-.586.252-.949.8-.526,1.081-.364,1.187.586-.252.949-.8" transform="translate(-987.712 -788.788)"/>
    </clipPath>
    <radialGradient id="radial-gradient-15" cx="0.501" cy="0.498" r="0.092" gradientTransform="matrix(0.836, 0.551, -1.877, 2.837, 76.902, -70.541)" xlink:href="#radial-gradient"/>
    <clipPath id="clip-path-59">
      <rect id="Rectangle_148221" data-name="Rectangle 148221" width="1.839" height="1.44" transform="translate(0 0.506) rotate(-15.956)"/>
    </clipPath>
    <clipPath id="clip-path-60">
      <path id="Path_60839" data-name="Path 60839" d="M994.194,810.461l-.231.351a.561.561,0,0,1-.777.159l-.936-.618.309-.468c.124-.19.849.068,1.635.576" transform="translate(-992.25 -809.823)"/>
    </clipPath>
    <linearGradient id="linear-gradient-30" x1="-12.49" y1="47.76" x2="-12.487" y2="47.76" xlink:href="#linear-gradient-2"/>
    <clipPath id="clip-path-61">
      <path id="Path_60842" data-name="Path 60842" d="M1153.384,227.2a5.692,5.692,0,0,0-5.622,5.766l.144,11.388,11.388-.144a5.694,5.694,0,0,0,5.622-5.766l-.144-11.388Z" transform="translate(-1147.761 -227.06)"/>
    </clipPath>
    <linearGradient id="linear-gradient-31" x1="-1.364" y1="5.989" x2="-1.36" y2="5.989" xlink:href="#linear-gradient-27"/>
    <clipPath id="clip-path-62">
      <rect id="Rectangle_148222" data-name="Rectangle 148222" width="18.957" height="16.655" transform="matrix(0.641, -0.767, 0.767, 0.641, 0, 14.55)"/>
    </clipPath>
    <clipPath id="clip-path-63">
      <path id="Path_60844" data-name="Path 60844" d="M1092.271,179.763c-.084-6.683-1.746-12.08-3.712-12.055s-3.49,5.462-3.406,12.145,1.746,12.08,3.712,12.055,3.49-5.462,3.405-12.145" transform="translate(-1085.151 -167.708)"/>
    </clipPath>
    <radialGradient id="radial-gradient-16" cx="0.5" cy="0.501" r="0.125" gradientTransform="matrix(1.008, -0.013, 0.043, 3.4, -0.285, -16.453)" xlink:href="#radial-gradient"/>
    <clipPath id="clip-path-64">
      <rect id="Rectangle_148223" data-name="Rectangle 148223" width="18.681" height="14.628" transform="matrix(0.641, -0.767, 0.767, 0.641, 0, 14.337)"/>
    </clipPath>
    <clipPath id="clip-path-65">
      <path id="Path_60847" data-name="Path 60847" d="M1166.077,353.53l.054,4.267a5.694,5.694,0,0,1-5.618,5.766l-11.392.144-.072-5.694c-.029-2.3,7.532-4.274,17.028-4.483" transform="translate(-1149.049 -353.53)"/>
    </clipPath>
    <linearGradient id="linear-gradient-32" x1="-2.007" y1="7.678" x2="-2.002" y2="7.678" xlink:href="#linear-gradient-2"/>
    <clipPath id="clip-path-66">
      <path id="Path_60851" data-name="Path 60851" d="M1215.19,1554.145s.443,3.236,1.626,2.9c.686-.194,3-2.188,8.283-.715a15.46,15.46,0,0,1,2.775,1.183l.061-.12a3.964,3.964,0,0,0-1.763-3.066,8.856,8.856,0,0,0-1.892-1.118,25.813,25.813,0,0,0-2.766-.57,14.527,14.527,0,0,0-6.325,1.5" transform="translate(-1215.19 -1552.64)"/>
    </clipPath>
    <linearGradient id="linear-gradient-33" x1="-3.77" y1="11.737" x2="-3.765" y2="11.737" gradientUnits="objectBoundingBox">
      <stop offset="0" stop-color="#4b2c6f"/>
      <stop offset="0.068" stop-color="#4f3072"/>
      <stop offset="0.14" stop-color="#5a3d7b"/>
      <stop offset="0.215" stop-color="#6c5289"/>
      <stop offset="0.291" stop-color="#85709e"/>
      <stop offset="0.368" stop-color="#a697b8"/>
      <stop offset="0.446" stop-color="#cec6d8"/>
      <stop offset="0.524" stop-color="#fdfdfd"/>
      <stop offset="0.527" stop-color="#fff"/>
      <stop offset="0.563" stop-color="#e9e5ed"/>
      <stop offset="0.648" stop-color="#b9aec7"/>
      <stop offset="0.731" stop-color="#927fa8"/>
      <stop offset="0.809" stop-color="#735b8f"/>
      <stop offset="0.882" stop-color="#5d417d"/>
      <stop offset="0.948" stop-color="#503173"/>
      <stop offset="1" stop-color="#4b2c6f"/>
    </linearGradient>
    <clipPath id="clip-path-67">
      <path id="Path_60852" data-name="Path 60852" d="M1685.347,1649.591c-.83.047-2.906.752-2.42.829,5.044.806,5.433,5.488,3.842,8.089a4.736,4.736,0,0,1-3.147,2.243,6.918,6.918,0,0,0,5.921-.215l.308-.128a7.582,7.582,0,0,0,1.184-1.682,6.822,6.822,0,0,0-1.692-8.1,2.236,2.236,0,0,0-.6-.369l-.032-.009a8.809,8.809,0,0,0-3.343-.659h-.023" transform="translate(-1682.855 -1649.59)"/>
    </clipPath>
    <linearGradient id="linear-gradient-34" x1="-8.28" y1="9.146" x2="-8.273" y2="9.146" xlink:href="#linear-gradient-33"/>
    <clipPath id="clip-path-68">
      <path id="Path_60853" data-name="Path 60853" d="M1195.893,1666.87l-1.466.6a4.856,4.856,0,0,0-.569.25c-.1.074-.385.322-.483.406a5.344,5.344,0,0,0-.754,1.109,5.762,5.762,0,0,0,1.659,7.273,2.95,2.95,0,0,0,.634.359l.031.009a5.993,5.993,0,0,0,5.4,0,8.463,8.463,0,0,1-.873-.152,4.079,4.079,0,0,1-1.483-.737,5.293,5.293,0,0,1-1.061-6.751,5.674,5.674,0,0,1,1.883-1.935,12.454,12.454,0,0,0-2.893-.438c-.038,0-.049,0-.026.011" transform="translate(-1191.97 -1666.859)"/>
    </clipPath>
    <linearGradient id="linear-gradient-35" x1="-6.005" y1="9.992" x2="-5.997" y2="9.992" xlink:href="#linear-gradient-33"/>
    <clipPath id="clip-path-69">
      <path id="Path_60854" data-name="Path 60854" d="M1217.96,1648.272a6.051,6.051,0,0,0-1.031.9s3.394-2.573,8.815.823c0,0,9.4,6.306,11.724,7.724l.136.077a21.2,21.2,0,0,0,2.289,1.155c3.047,1.284,7.168,1.164,9.5-.516a5.2,5.2,0,0,0,1.211-1.213,5.723,5.723,0,0,1-3.5.829,9.45,9.45,0,0,1-5.314-1.608l-.179-.106a29.891,29.891,0,0,1-2.713-1.793l-.067-.048a91.632,91.632,0,0,0-9.179-5.935l-.292-.149c-.493-.252-1.092-.538-1.719-.787a11.972,11.972,0,0,0-4.4-.851,9.431,9.431,0,0,0-5.275,1.5" transform="translate(-1216.93 -1646.77)"/>
    </clipPath>
    <linearGradient id="linear-gradient-36" x1="-1.684" y1="8.073" x2="-1.682" y2="8.073" gradientUnits="objectBoundingBox">
      <stop offset="0" stop-color="#faaa2c"/>
      <stop offset="0.532" stop-color="#de3529"/>
      <stop offset="1" stop-color="#faaa2c"/>
    </linearGradient>
    <clipPath id="clip-path-70">
      <path id="Path_60855" data-name="Path 60855" d="M1238.352,1554.467a7.634,7.634,0,0,1,2.489,7.615,9.192,9.192,0,0,1-8.714,7.3,6.988,6.988,0,0,1-3.4-.893,9.746,9.746,0,0,0,1.751,1.265,10.31,10.31,0,0,0,5.044,1.2,9.289,9.289,0,0,0,8.9-7.289c.767-3.869-1.807-7.187-3.059-8.325a10.218,10.218,0,0,0-6.811-2.723l-.255-.011a9.614,9.614,0,0,1,4.056,1.857" transform="translate(-1228.73 -1552.61)"/>
    </clipPath>
    <linearGradient id="linear-gradient-37" x1="-3.47" y1="6.258" x2="-3.467" y2="6.258" xlink:href="#linear-gradient-13"/>
    <clipPath id="clip-path-71">
      <path id="Path_60856" data-name="Path 60856" d="M1530.9,1625.541a9.259,9.259,0,0,0-8.439,6.027,10.125,10.125,0,0,0-.577,3.929l.023,9.837s-.086,2.776,3.437,2.557v-10.153a12.814,12.814,0,0,1,.346-3.958,9.287,9.287,0,0,1,8.643-6.545,7.2,7.2,0,0,1,3.611,1.176,9.906,9.906,0,0,0-6.973-2.871h-.07" transform="translate(-1521.872 -1625.54)"/>
    </clipPath>
    <linearGradient id="linear-gradient-38" x1="-4.564" y1="4.916" x2="-4.56" y2="4.916" xlink:href="#linear-gradient-13"/>
    <linearGradient id="linear-gradient-39" x1="0" y1="0.5" x2="1" y2="0.5" xlink:href="#linear-gradient-13"/>
  </defs>
  <g id="logo" transform="translate(-432.32 -158.583)">
    <g id="Group_82039" data-name="Group 82039" transform="translate(450.733 207.272)">
      <g id="Group_82002" data-name="Group 82002" transform="translate(11.85 7.047)">
        <g id="Group_81994" data-name="Group 81994" opacity="0.5">
          <g id="Group_81993" data-name="Group 81993">
            <g id="Group_81992" data-name="Group 81992">
              <g id="Group_81991" data-name="Group 81991" clip-path="url(#clip-path)">
                <path id="Path_60724" data-name="Path 60724" d="M928.49,1035.2l2.586,15.038,15.966-2.745-2.586-15.038Z" transform="translate(-930.812 -1038.976)" fill="url(#radial-gradient)"/>
              </g>
            </g>
          </g>
        </g>
        <g id="Group_81997" data-name="Group 81997" transform="translate(2.052 2.037)">
          <g id="Group_81995" data-name="Group 81995" clip-path="url(#clip-path-2)">
            <path id="Path_60726" data-name="Path 60726" d="M944.058,1107.1l-12.9-8.98-7.88,11.318,12.9,8.98Z" transform="translate(-927.947 -1102.984)" fill="url(#linear-gradient)"/>
          </g>
          <g id="Group_81996" data-name="Group 81996" clip-path="url(#clip-path-2)">
            <path id="Path_60728" data-name="Path 60728" d="M1063.8,1212.859l-.886,1.747a1.017,1.017,0,0,0,.447,1.367l.036.017c.019-.05.036-.1.058-.149l.887-1.986Zm0,0,3.791,2.948-2.036-3.987-1.848,4.134a2.068,2.068,0,0,0,1.044,2.731c.035.016.071.031.108.045a2.069,2.069,0,0,0,1.39.029l.153-.051a2.068,2.068,0,0,0,1.188-2.9h0Zm-1.148,2.387a.139.139,0,0,1-.127-.247h0a1.623,1.623,0,0,0,.9-1.446.139.139,0,0,1,.139-.138h0a.139.139,0,0,1,.138.139,1.9,1.9,0,0,1-1.049,1.693Zm0,0,1.6-.026h.278v.278h-.278Zm.417-.556h.278v.278h-.278Zm-.833,1.112h.278V1219h-.278Z" transform="translate(-1059.613 -1210.282)" fill="#fff"/>
          </g>
        </g>
        <g id="Group_82001" data-name="Group 82001" transform="translate(2.052 2.639)" opacity="0.2">
          <g id="Group_82000" data-name="Group 82000">
            <g id="Group_81999" data-name="Group 81999">
              <g id="Group_81998" data-name="Group 81998" clip-path="url(#clip-path-4)">
                <path id="Path_60730" data-name="Path 60730" d="M944.585,1137.64l-13.765,2.367,2.338,13.591,13.764-2.366Z" transform="translate(-935.063 -1140.881)" fill="url(#linear-gradient-2)"/>
              </g>
            </g>
          </g>
        </g>
        <path id="Path_60732" data-name="Path 60732" d="M1018.073,1200.626a2.953,2.953,0,0,1-3.411-2.411l-1.063-6.179,6.179-1.063a2.953,2.953,0,0,1,3.411,2.411l1.063,6.179Zm-3.31-2.428a2.85,2.85,0,0,0,3.292,2.326l6.077-1.045-1.045-6.077a2.85,2.85,0,0,0-3.292-2.326l-6.077,1.045Z" transform="translate(-1011.129 -1188.531)" fill="#fff"/>
      </g>
      <g id="Group_82014" data-name="Group 82014" transform="translate(4.892 0)">
        <g id="Group_82004" data-name="Group 82004" transform="translate(0.511 0.711)">
          <g id="Group_82003" data-name="Group 82003" clip-path="url(#clip-path-5)">
            <path id="Path_60733" data-name="Path 60733" d="M846.4,1017.772l-4.086-1.162-1.138,4,4.086,1.162Z" transform="translate(-841.972 -1017.692)" fill="url(#linear-gradient-3)"/>
          </g>
        </g>
        <g id="Group_82008" data-name="Group 82008" opacity="0.5">
          <g id="Group_82007" data-name="Group 82007">
            <g id="Group_82006" data-name="Group 82006">
              <g id="Group_82005" data-name="Group 82005" clip-path="url(#clip-path-6)">
                <path id="Path_60735" data-name="Path 60735" d="M834.47,1008.111l1.113,2.031,3.577-1.961-1.113-2.031Z" transform="translate(-835.129 -1007.11)" fill="url(#radial-gradient-2)"/>
              </g>
            </g>
          </g>
        </g>
        <g id="Group_82013" data-name="Group 82013" transform="translate(0.512 0.809)">
          <g id="Group_82012" data-name="Group 82012" transform="translate(0 0.421)" opacity="0.2">
            <g id="Group_82011" data-name="Group 82011">
              <g id="Group_82010" data-name="Group 82010">
                <g id="Group_82009" data-name="Group 82009" clip-path="url(#clip-path-7)">
                  <path id="Path_60737" data-name="Path 60737" d="M847.156,1031.02l-2.306,1.264,1.5,2.741,2.306-1.264Z" transform="translate(-845.436 -1031.809)" fill="url(#linear-gradient-4)"/>
                </g>
              </g>
            </g>
          </g>
          <path id="Path_60739" data-name="Path 60739" d="M859.5,1040.263a.8.8,0,0,1-1.08-.315l-.812-1.481,1.481-.812a.8.8,0,0,1,1.08.315l.812,1.481Zm-1.056-.329a.767.767,0,0,0,1.042.3l1.457-.8-.8-1.457a.768.768,0,0,0-1.042-.3l-1.457.8Z" transform="translate(-857.478 -1037.556)" fill="#fff"/>
        </g>
      </g>
      <g id="Group_82026" data-name="Group 82026" transform="translate(6.288 10.059)">
        <g id="Group_82016" data-name="Group 82016" transform="translate(0 0.582)">
          <g id="Group_82015" data-name="Group 82015" clip-path="url(#clip-path-8)">
            <path id="Path_60740" data-name="Path 60740" d="M869.312,1212.5l-.364-5.292-4.418.3.363,5.292Z" transform="translate(-864.892 -1207.489)" fill="url(#linear-gradient-5)"/>
          </g>
        </g>
        <g id="Group_82020" data-name="Group 82020" transform="translate(1.253)" opacity="0.5">
          <g id="Group_82019" data-name="Group 82019">
            <g id="Group_82018" data-name="Group 82018">
              <g id="Group_82017" data-name="Group 82017" clip-path="url(#clip-path-9)">
                <path id="Path_60742" data-name="Path 60742" d="M858.455,1159.81l-3.865,4.374,4.4,3.886,3.865-4.373Z" transform="translate(-856.765 -1162.176)" fill="url(#radial-gradient-3)"/>
              </g>
            </g>
          </g>
        </g>
        <g id="Group_82025" data-name="Group 82025" transform="translate(0 0.583)">
          <g id="Group_82024" data-name="Group 82024" opacity="0.2">
            <g id="Group_82023" data-name="Group 82023">
              <g id="Group_82022" data-name="Group 82022">
                <g id="Group_82021" data-name="Group 82021" clip-path="url(#clip-path-10)">
                  <path id="Path_60744" data-name="Path 60744" d="M842.112,1187.816l-3.775-3.336-3.388,3.834,3.774,3.335Z" transform="translate(-836.978 -1186.04)" fill="url(#linear-gradient-6)"/>
                </g>
              </g>
            </g>
          </g>
          <path id="Path_60746" data-name="Path 60746" d="M873.621,1218.61a1.059,1.059,0,0,1-.092-1.5l1.489-1.685,1.685,1.489a1.059,1.059,0,0,1,.092,1.5l-1.489,1.685Zm-.064-1.47a1.022,1.022,0,0,0,.089,1.442l1.657,1.464,1.464-1.657a1.022,1.022,0,0,0-.089-1.443l-1.657-1.464Z" transform="translate(-873.133 -1215.247)" fill="#fff"/>
        </g>
      </g>
      <g id="Group_82038" data-name="Group 82038" transform="translate(0 8.971)">
        <g id="Group_82028" data-name="Group 82028" transform="translate(0.313 0.705)">
          <g id="Group_82027" data-name="Group 82027" clip-path="url(#clip-path-11)">
            <path id="Path_60747" data-name="Path 60747" d="M754.857,1191.155l.837-3.39-3.388-.836-.836,3.389Z" transform="translate(-752.224 -1187.386)" fill="url(#linear-gradient-7)"/>
          </g>
        </g>
        <g id="Group_82032" data-name="Group 82032" transform="translate(1.439)" opacity="0.5">
          <g id="Group_82031" data-name="Group 82031">
            <g id="Group_82030" data-name="Group 82030" clip-path="url(#clip-path-12)">
              <g id="Group_82029" data-name="Group 82029" transform="translate(0.294 0.25)" clip-path="url(#clip-path-13)">
                <path id="Path_60749" data-name="Path 60749" d="M783.8,1181.72l-1,.595,1.773,2.981,1-.595Z" transform="translate(-783.21 -1182.014)" fill="url(#radial-gradient-4)"/>
              </g>
            </g>
          </g>
        </g>
        <g id="Group_82037" data-name="Group 82037" transform="translate(0 0.692)">
          <g id="Group_82036" data-name="Group 82036" opacity="0.2">
            <g id="Group_82035" data-name="Group 82035">
              <g id="Group_82034" data-name="Group 82034" clip-path="url(#clip-path-14)">
                <g id="Group_82033" data-name="Group 82033" transform="translate(0.313 0.014)" clip-path="url(#clip-path-15)">
                  <path id="Path_60751" data-name="Path 60751" d="M761.469,1194.983l-.793-1.333-2.126,1.265.793,1.332Z" transform="translate(-758.905 -1193.728)" fill="url(#linear-gradient-8)"/>
                </g>
              </g>
            </g>
          </g>
          <path id="Path_60753" data-name="Path 60753" d="M766.513,1198.932a.717.717,0,0,1,.25-.983l1.309-.779.779,1.309a.717.717,0,0,1-.25.983l-1.309.779Zm.263-.962a.692.692,0,0,0-.241.949l.766,1.287,1.287-.766a.692.692,0,0,0,.241-.949l-.766-1.288Z" transform="translate(-766.011 -1197.036)" fill="#fff"/>
        </g>
      </g>
    </g>
    <g id="Group_82051" data-name="Group 82051" transform="translate(449.315 196.323)">
      <g id="Group_82041" data-name="Group 82041" transform="translate(0.536 1.069)">
        <g id="Group_82040" data-name="Group 82040" clip-path="url(#clip-path-16)">
          <path id="Path_60754" data-name="Path 60754" d="M739.159,835.85l-5.229.748.643,4.49,5.229-.748Z" transform="translate(-734.476 -836.52)" fill="url(#linear-gradient-9)"/>
        </g>
      </g>
      <g id="Group_82045" data-name="Group 82045" transform="translate(0 0)" opacity="0.5">
        <g id="Group_82044" data-name="Group 82044">
          <g id="Group_82043" data-name="Group 82043" clip-path="url(#clip-path-17)">
            <g id="Group_82042" data-name="Group 82042" transform="translate(0 0)" clip-path="url(#clip-path-18)">
              <path id="Path_60756" data-name="Path 60756" d="M693.49,799.477l4.33,3.293,3.382-4.447-4.33-3.293Z" transform="translate(-695.778 -796.929)" fill="url(#radial-gradient-5)"/>
            </g>
          </g>
        </g>
      </g>
      <g id="Group_82050" data-name="Group 82050" transform="translate(0.535 1.069)">
        <path id="Path_60758" data-name="Path 60758" d="M748.4,849.358l-1.81-1.376A1.137,1.137,0,0,0,745,848.2l-1.376,1.809,1.809,1.376a1.137,1.137,0,0,0,1.593-.217Z" transform="translate(-743.62 -847.75)" fill="none" stroke="#fff" stroke-miterlimit="10" stroke-width="1.147"/>
        <g id="Group_82049" data-name="Group 82049" transform="translate(0.001 1.248)" opacity="0.3">
          <g id="Group_82048" data-name="Group 82048">
            <g id="Group_82047" data-name="Group 82047" clip-path="url(#clip-path-19)">
              <g id="Group_82046" data-name="Group 82046" transform="translate(-0.001 0)" clip-path="url(#clip-path-20)">
                <path id="Path_60759" data-name="Path 60759" d="M721.578,831.77,718.74,835.5l3.884,2.954,2.838-3.732Z" transform="translate(-720.141 -833.918)" fill="url(#linear-gradient-10)"/>
              </g>
            </g>
          </g>
        </g>
        <path id="Path_60761" data-name="Path 60761" d="M749.859,853.17a1.013,1.013,0,0,1-1.419.193l-1.711-1.3,1.3-1.711a1.012,1.012,0,0,1,1.418-.193l1.711,1.3Zm-1.4.164a.977.977,0,0,0,1.369-.186l1.279-1.682-1.682-1.279a.977.977,0,0,0-1.369.186l-1.279,1.682Z" transform="translate(-746.555 -849.828)" fill="#fff"/>
      </g>
    </g>
    <g id="Group_82064" data-name="Group 82064" transform="translate(439.373 181.97)">
      <g id="Group_82053" data-name="Group 82053" transform="translate(2.918)">
        <g id="Group_82052" data-name="Group 82052" clip-path="url(#clip-path-21)">
          <path id="Path_60762" data-name="Path 60762" d="M592.285,559.97l-1.015,14.488,12.127.85,1.015-14.488Z" transform="translate(-592.29 -560.753)" fill="url(#linear-gradient-11)"/>
        </g>
      </g>
      <g id="Group_82057" data-name="Group 82057" transform="translate(0 4.644)" opacity="0.5">
        <g id="Group_82056" data-name="Group 82056">
          <g id="Group_82055" data-name="Group 82055" clip-path="url(#clip-path-22)">
            <g id="Group_82054" data-name="Group 82054" transform="translate(0 0)" clip-path="url(#clip-path-23)">
              <path id="Path_60764" data-name="Path 60764" d="M452.429,574.883l12.09-10.36L454.07,552.33l-12.09,10.36Z" transform="translate(-448.489 -558.188)" fill="url(#radial-gradient-6)"/>
            </g>
          </g>
        </g>
      </g>
      <g id="Group_82063" data-name="Group 82063" transform="translate(2.918)">
        <path id="Path_60766" data-name="Path 60766" d="M615.46,573.87l-4.944,4.237a3.256,3.256,0,0,0-.354,4.591l4.237,4.944,4.944-4.237a3.256,3.256,0,0,0,.354-4.591Z" transform="translate(-609.378 -573.87)" fill="none" stroke="#fff" stroke-miterlimit="10" stroke-width="1.147"/>
        <g id="Group_82061" data-name="Group 82061" transform="translate(2.739 3.092)" opacity="0.3">
          <g id="Group_82060" data-name="Group 82060">
            <g id="Group_82059" data-name="Group 82059" clip-path="url(#clip-path-24)">
              <g id="Group_82058" data-name="Group 82058" transform="translate(-0.001)" clip-path="url(#clip-path-25)">
                <path id="Path_60767" data-name="Path 60767" d="M552,557.816l9.137,10.663,10.533-9.026-9.137-10.662Z" transform="translate(-557.97 -553.294)" fill="url(#linear-gradient-12)"/>
              </g>
            </g>
          </g>
        </g>
        <path id="Path_60769" data-name="Path 60769" d="M625.386,587.473a2.9,2.9,0,0,1-.315,4.089l-4.674,4.006-4.005-4.674a2.9,2.9,0,0,1,.315-4.088l4.674-4Zm-.381,4.012a2.8,2.8,0,0,0,.3-3.945l-3.939-4.6-4.6,3.939a2.8,2.8,0,0,0-.3,3.945l3.939,4.6Z" transform="translate(-615.338 -582.297)" fill="#fff"/>
        <g id="Group_82062" data-name="Group 82062" transform="translate(2.106 4.421)">
          <path id="Path_60770" data-name="Path 60770" d="M701.955,729.85a.115.115,0,0,0-.115.115V731.8a.115.115,0,0,0,.23,0v-1.837a.115.115,0,0,0-.115-.115Zm0,0" transform="translate(-698.739 -725.487)" fill="#fff"/>
          <path id="Path_60771" data-name="Path 60771" d="M653.325,653.289h-.115v-.23a.23.23,0,0,0-.23-.23h-.23v-.115a.345.345,0,0,0-.345-.345h-4.822a.345.345,0,0,0-.345.345v.115h-.23a.23.23,0,0,0-.23.23v.689a.23.23,0,0,0,.23.23h.23v.115a.345.345,0,0,0,.345.345h4.822a.345.345,0,0,0,.345-.345v-.115h.23a.23.23,0,0,0,.23-.23v-.23h.115a.115.115,0,0,1,.115.115v1.377a.115.115,0,0,1-.115.115h-3.1a.345.345,0,0,0-.345.345v.345h-.115a.115.115,0,0,0-.115.115v.345h-.115a.23.23,0,0,0-.23.23v2.181a.574.574,0,0,0,.574.574h.23a.575.575,0,0,0,.574-.574V656.5a.23.23,0,0,0-.23-.23h-.114v-.345a.115.115,0,0,0-.115-.115h-.115v-.345a.115.115,0,0,1,.115-.115h3.1a.345.345,0,0,0,.345-.345v-1.377a.345.345,0,0,0-.345-.344Zm-6.314.459v-.689h.23v.689Zm5.511.345a.115.115,0,0,1-.115.115h-4.822a.115.115,0,0,1-.115-.115v-1.377a.115.115,0,0,1,.115-.115h.344v.345a.115.115,0,0,0,.23,0V652.6h.23v.689a.115.115,0,0,0,.23,0V652.6h.23v.574a.115.115,0,1,0,.23,0V652.6h3.329a.115.115,0,0,1,.115.115v1.377Zm.23-.345v-.689h.23v.689Zm-2.3,4.937a.345.345,0,0,1-.345.345h-.23a.345.345,0,0,1-.345-.345V656.5h.918v2.181Zm-.574-2.411v-.23h.23v.23Zm0,0" transform="translate(-646.78 -652.37)" fill="#fff"/>
          <path id="Path_60772" data-name="Path 60772" d="M683.6,672.77a.115.115,0,0,0-.115.115v.23a.115.115,0,0,0,.23,0v-.23a.115.115,0,0,0-.115-.115Zm0,0" transform="translate(-681.423 -671.621)" fill="#fff"/>
        </g>
      </g>
    </g>
    <g id="Group_82099" data-name="Group 82099" transform="translate(472.062 198.088)">
      <g id="Group_82076" data-name="Group 82076" transform="translate(6.201 4.961)">
        <g id="Group_82066" data-name="Group 82066" transform="translate(0.474)">
          <g id="Group_82065" data-name="Group 82065" clip-path="url(#clip-path-26)">
            <path id="Path_60773" data-name="Path 60773" d="M1247.765,941.81l.312,4.581-4.515.307-.312-4.581Z" transform="translate(-1244.001 -942.169)" fill="url(#linear-gradient-13)"/>
          </g>
        </g>
        <g id="Group_82070" data-name="Group 82070" transform="translate(1.222 1.189)" opacity="0.5">
          <g id="Group_82069" data-name="Group 82069">
            <g id="Group_82068" data-name="Group 82068" clip-path="url(#clip-path-27)">
              <g id="Group_82067" data-name="Group 82067" transform="translate(0.604 0.216)" clip-path="url(#clip-path-28)">
                <path id="Path_60775" data-name="Path 60775" d="M1266.558,963.668l-1.758-1.513,2.9-3.365,1.758,1.512Z" transform="translate(-1265.689 -959.598)" fill="url(#radial-gradient-7)"/>
              </g>
            </g>
          </g>
        </g>
        <g id="Group_82075" data-name="Group 82075" transform="translate(0 0.001)">
          <path id="Path_60777" data-name="Path 60777" d="M1258.117,948.2l1.488,1.28a.982.982,0,0,1,.1,1.384l-1.28,1.488-1.488-1.28a.981.981,0,0,1-.1-1.384Z" transform="translate(-1256.126 -948.2)" fill="none" stroke="#fff" stroke-miterlimit="10" stroke-width="1.147"/>
          <g id="Group_82074" data-name="Group 82074" transform="translate(0 0.832)" opacity="0.3">
            <g id="Group_82073" data-name="Group 82073">
              <g id="Group_82072" data-name="Group 82072" clip-path="url(#clip-path-29)">
                <g id="Group_82071" data-name="Group 82071" transform="translate(0.474 0.098)" clip-path="url(#clip-path-30)">
                  <path id="Path_60778" data-name="Path 60778" d="M1245.568,960.252l-1.54,1.79-2.628-2.261,1.54-1.79Z" transform="translate(-1242.255 -958.369)" fill="url(#linear-gradient-14)"/>
                </g>
              </g>
            </g>
          </g>
          <path id="Path_60780" data-name="Path 60780" d="M1259.927,950.88l1.406,1.21a.874.874,0,0,1,.092,1.232l-1.21,1.406-1.406-1.21a.874.874,0,0,1-.092-1.232Zm.285,3.806,1.19-1.383a.842.842,0,0,0-.09-1.189l-1.383-1.19-1.19,1.383a.843.843,0,0,0,.089,1.189Z" transform="translate(-1257.924 -950.729)" fill="#fff"/>
        </g>
      </g>
      <g id="Group_82088" data-name="Group 82088" transform="translate(0 3.401)">
        <g id="Group_82078" data-name="Group 82078" transform="translate(0.563 0.279)">
          <g id="Group_82077" data-name="Group 82077" clip-path="url(#clip-path-31)">
            <path id="Path_60781" data-name="Path 60781" d="M1134.36,916.734l1.017-2.3,2.249.992-1.017,2.3Z" transform="translate(-1135.131 -915.05)" fill="url(#linear-gradient-15)"/>
          </g>
        </g>
        <g id="Group_82082" data-name="Group 82082" opacity="0.5">
          <g id="Group_82081" data-name="Group 82081">
            <g id="Group_82080" data-name="Group 82080" clip-path="url(#clip-path-32)">
              <g id="Group_82079" data-name="Group 82079" transform="translate(0.092 0.055)" clip-path="url(#clip-path-33)">
                <path id="Path_60783" data-name="Path 60783" d="M1136.008,911.05l.52,1.313-2.248.89-.52-1.314Z" transform="translate(-1134.094 -911.636)" fill="url(#radial-gradient-8)"/>
              </g>
            </g>
          </g>
        </g>
        <g id="Group_82087" data-name="Group 82087" transform="translate(0.563 0.239)">
          <path id="Path_60785" data-name="Path 60785" d="M1148.474,927.495l-.389-.982a.527.527,0,0,1,.3-.685l.982-.389.389.982a.528.528,0,0,1-.3.685Z" transform="translate(-1148.048 -925.4)" fill="none" stroke="#fff" stroke-miterlimit="10" stroke-width="1.147"/>
          <g id="Group_82086" data-name="Group 82086" transform="translate(0.646)" opacity="0.3">
            <g id="Group_82085" data-name="Group 82085">
              <g id="Group_82084" data-name="Group 82084" clip-path="url(#clip-path-34)">
                <g id="Group_82083" data-name="Group 82083" transform="translate(0.075 0.04)" clip-path="url(#clip-path-35)">
                  <path id="Path_60786" data-name="Path 60786" d="M1152,921.485l1.276-.505.711,1.8-1.276.5Z" transform="translate(-1152.499 -921.231)" fill="url(#linear-gradient-16)"/>
                </g>
              </g>
            </g>
          </g>
          <path id="Path_60788" data-name="Path 60788" d="M1149.468,928.666l-.367-.928a.47.47,0,0,1,.264-.61l.928-.367.367.928a.47.47,0,0,1-.264.61Zm.816-1.884-.913.361a.454.454,0,0,0-.255.589l.361.913.913-.361a.454.454,0,0,0,.255-.588Z" transform="translate(-1149.01 -926.646)" fill="#fff"/>
        </g>
      </g>
      <g id="Group_82098" data-name="Group 82098" transform="translate(7.152 0)">
        <path id="Path_60789" data-name="Path 60789" d="M1385.7,889.522l-5.911,3.4a3.409,3.409,0,0,1-4.655-1.256l-3.4-5.911,5.911-3.4a3.411,3.411,0,0,1,4.655,1.256Z" transform="translate(-1365.732 -880.673)" fill="url(#linear-gradient-17)"/>
        <g id="Group_82097" data-name="Group 82097">
          <g id="Group_82096" data-name="Group 82096">
            <g id="Group_82091" data-name="Group 82091" opacity="0.5">
              <g id="Group_82090" data-name="Group 82090">
                <g id="Group_82089" data-name="Group 82089">
                  <path id="Path_60790" data-name="Path 60790" d="M1265.05,865.4l9.22-5.3,7.894,13.727-9.22,5.3Z" transform="translate(-1265.05 -860.1)" fill="url(#radial-gradient-9)"/>
                </g>
              </g>
            </g>
            <path id="Path_60791" data-name="Path 60791" d="M1385.7,889.529l-5.911,3.4a3.409,3.409,0,0,1-4.655-1.256l-3.4-5.911,5.911-3.4a3.409,3.409,0,0,1,4.655,1.256Z" transform="translate(-1365.732 -880.68)" fill="none" stroke="#fff" stroke-miterlimit="10" stroke-width="1.147"/>
            <g id="Group_82095" data-name="Group 82095" transform="translate(6.008 1.227)" opacity="0.3">
              <g id="Group_82094" data-name="Group 82094">
                <g id="Group_82093" data-name="Group 82093">
                  <g id="Group_82092" data-name="Group 82092" clip-path="url(#clip-path-36)">
                    <path id="Path_60792" data-name="Path 60792" d="M1336.2,828.078l-4.992-8.681,11.333-6.517,4.992,8.681Z" transform="translate(-1333.492 -816.766)" fill="url(#linear-gradient-18)"/>
                  </g>
                </g>
              </g>
            </g>
            <path id="Path_60794" data-name="Path 60794" d="M1393.726,895.619l-5.587,3.213a3.037,3.037,0,0,1-4.146-1.119l-3.213-5.587,5.587-3.213a3.036,3.036,0,0,1,4.146,1.118Zm-12.8-3.454,3.16,5.495a2.93,2.93,0,0,0,4,1.08l5.495-3.16-3.16-5.495a2.93,2.93,0,0,0-4-1.08Z" transform="translate(-1374.263 -886.907)" fill="#fff"/>
            <path id="Path_60795" data-name="Path 60795" d="M1443.717,927.459h-.115V927h.115a.23.23,0,0,1,.229.229.224.224,0,0,1-.068.162A.226.226,0,0,1,1443.717,927.459Zm1.032,0h.115V927h-.115a.231.231,0,0,0-.229.229A.23.23,0,0,0,1444.749,927.459Zm-.307,2.978a.9.9,0,0,0,.9-.778l.324-2.134a.465.465,0,0,0-.105-.367.451.451,0,0,0-.343-.159h-.121v.458h.121l-.324,2.133a.452.452,0,0,1-.447.389h-.417a.451.451,0,0,1-.447-.389l-.324-2.133h.12V927h-.12a.451.451,0,0,0-.343.159.463.463,0,0,0-.105.368l.324,2.133a.9.9,0,0,0,.9.778Zm2.915,1.971a1.246,1.246,0,0,0-.046-1.514.987.987,0,0,0-1.219-.046.955.955,0,0,0-.493-.185,1,1,0,0,0-.356.031.89.89,0,0,0-.369.2,1.242,1.242,0,0,0-.048,1.508,2.062,2.062,0,0,0,.46.57,2.18,2.18,0,0,0,.555-.134l0,0a2.135,2.135,0,0,1-.6-.644c-.212-.394-.23-.79-.046-.963a.483.483,0,0,1,.321-.111l.05,0a.493.493,0,0,1,.351.187.236.236,0,0,0,.367,0,.5.5,0,0,1,.351-.187.5.5,0,0,1,.372.109c.185.173.166.569-.05.969a1.694,1.694,0,0,1-.362.436,2.515,2.515,0,0,1-.5.377,1.656,1.656,0,0,1-.581.151l-.07.008-.136.012a1.387,1.387,0,0,1-1.229-.346c-.385-.5-.1-1.5.167-2.169h-.217a1.176,1.176,0,0,1-.262-.03,2.768,2.768,0,0,0-.053,2.477,1.6,1.6,0,0,0,1.353.537,4.4,4.4,0,0,0,.724-.07,1.975,1.975,0,0,0,.97-.473A2.558,2.558,0,0,0,1447.357,932.409Zm.625-1.651c.259.661.5,1.6.13,2.079a1.287,1.287,0,0,1-1.11.353c-.057.052-.119.1-.185.154l-.06.047a2.232,2.232,0,0,1-.287.206,4.291,4.291,0,0,0,.652.055,1.6,1.6,0,0,0,1.353-.537c.521-.683.2-1.825-.071-2.526A1.226,1.226,0,0,1,1447.982,930.758Zm-1.284-1.235a1.032,1.032,0,1,1,1.638.835,1.017,1.017,0,0,1-.479.189.869.869,0,0,1-.127.008A1.032,1.032,0,0,1,1446.7,929.523Zm.459,0a.573.573,0,1,0,.573-.573A.573.573,0,0,0,1447.157,929.523Zm.573.344a.344.344,0,1,0-.344-.344A.344.344,0,0,0,1447.73,929.867Z" transform="translate(-1432.79 -923.233)" fill="#fff"/>
          </g>
        </g>
      </g>
    </g>
    <g id="Group_82124" data-name="Group 82124" transform="translate(432.32 224.534)">
      <g id="Group_82111" data-name="Group 82111" transform="translate(0 1.484)">
        <g id="Group_82102" data-name="Group 82102" opacity="0.5">
          <g id="Group_82101" data-name="Group 82101">
            <g id="Group_82100" data-name="Group 82100">
              <path id="Path_60796" data-name="Path 60796" d="M442.014,1356.09l.472,5.876-9.694.779-.472-5.877Z" transform="translate(-432.32 -1356.09)" fill="url(#radial-gradient-10)"/>
            </g>
          </g>
        </g>
        <g id="Group_82104" data-name="Group 82104" transform="translate(2.083 3.072)">
          <g id="Group_82103" data-name="Group 82103" clip-path="url(#clip-path-37)">
            <path id="Path_60797" data-name="Path 60797" d="M401.7,1353.391l6.64-7.691,7.483,6.46-6.64,7.692Z" transform="translate(-405.507 -1349.358)" fill="url(#linear-gradient-19)"/>
          </g>
        </g>
        <g id="Group_82110" data-name="Group 82110" transform="translate(2.055 2.924)">
          <g id="Group_82105" data-name="Group 82105" transform="translate(0 0.12)">
            <path id="Path_60799" data-name="Path 60799" d="M475.134,1415.529a2.151,2.151,0,0,1-1.734,1.154l-4.245.341-.341-4.245a2.143,2.143,0,0,1,1.965-2.308l4.245-.341.341,4.245A2.14,2.14,0,0,1,475.134,1415.529Zm-5.929,1.435,4.19-.337a2.086,2.086,0,0,0,1.914-2.248l-.336-4.19-4.19.337a2.073,2.073,0,0,0-1.422.728,2.083,2.083,0,0,0-.491,1.521Z" transform="translate(-468.807 -1410.13)" fill="#fff"/>
          </g>
          <g id="Group_82109" data-name="Group 82109" transform="translate(1.272)" opacity="0.3">
            <g id="Group_82108" data-name="Group 82108">
              <g id="Group_82107" data-name="Group 82107" clip-path="url(#clip-path-38)">
                <g id="Group_82106" data-name="Group 82106" transform="translate(1.717 0.149)" clip-path="url(#clip-path-39)">
                  <path id="Path_60800" data-name="Path 60800" d="M488.44,1403.139l6.47-.519.576,7.17-6.47.52Z" transform="translate(-490.324 -1403.073)" fill="url(#linear-gradient-20)"/>
                </g>
              </g>
            </g>
          </g>
          <path id="Path_60802" data-name="Path 60802" d="M473.726,1421.436l-.32-3.987a1.884,1.884,0,0,1,1.727-2.029l3.987-.32.32,3.986a1.884,1.884,0,0,1-1.727,2.029Zm5.333-6.265-3.921.315a1.818,1.818,0,0,0-1.667,1.957l.315,3.921,3.921-.315a1.818,1.818,0,0,0,1.667-1.957Z" transform="translate(-473.14 -1414.7)" fill="#fff"/>
        </g>
      </g>
      <g id="Group_82123" data-name="Group 82123" transform="translate(4.885)">
        <g id="Group_82114" data-name="Group 82114" transform="translate(1.781)" opacity="0.5">
          <g id="Group_82113" data-name="Group 82113">
            <g id="Group_82112" data-name="Group 82112">
              <path id="Path_60803" data-name="Path 60803" d="M553.8,1334.492l-2.887.134-.221-4.762,2.886-.134Z" transform="translate(-550.69 -1329.73)" fill="url(#radial-gradient-11)"/>
            </g>
          </g>
        </g>
        <g id="Group_82116" data-name="Group 82116" transform="translate(0.155 0.942)">
          <g id="Group_82115" data-name="Group 82115" clip-path="url(#clip-path-40)">
            <path id="Path_60804" data-name="Path 60804" d="M492.3,1312.87l3.658,3.38-3.288,3.559-3.659-3.38Z" transform="translate(-490.858 -1314.761)" fill="url(#linear-gradient-21)"/>
          </g>
        </g>
        <g id="Group_82122" data-name="Group 82122" transform="translate(0 0.927)">
          <g id="Group_82117" data-name="Group 82117" transform="translate(0.14)">
            <path id="Path_60806" data-name="Path 60806" d="M522.194,1349.252a1.034,1.034,0,0,1-.195-.141,1.045,1.045,0,0,1-.342-.728l-.1-2.085,2.085-.1a1.048,1.048,0,0,1,.561.132,1.028,1.028,0,0,1,.195.141,1.045,1.045,0,0,1,.342.728l.1,2.085-2.085.1A1.053,1.053,0,0,1,522.194,1349.252Zm-.605-2.928.1,2.058a1.017,1.017,0,0,0,.333.709,1,1,0,0,0,.19.137,1.022,1.022,0,0,0,.547.129l2.058-.1-.1-2.058a1.015,1.015,0,0,0-.333-.709,1.029,1.029,0,0,0-.19-.137,1.015,1.015,0,0,0-.547-.128Z" transform="translate(-521.56 -1346.2)" fill="#fff"/>
          </g>
          <g id="Group_82121" data-name="Group 82121" transform="translate(0 0.639)" opacity="0.3">
            <g id="Group_82120" data-name="Group 82120">
              <g id="Group_82119" data-name="Group 82119" clip-path="url(#clip-path-41)">
                <g id="Group_82118" data-name="Group 82118" transform="translate(0.215 0.765)" clip-path="url(#clip-path-42)">
                  <path id="Path_60807" data-name="Path 60807" d="M521.452,1356.53l.148,3.178-3.522.164-.148-3.178Z" transform="translate(-518.209 -1357.352)" fill="url(#linear-gradient-22)"/>
                </g>
              </g>
            </g>
          </g>
          <path id="Path_60809" data-name="Path 60809" d="M523.92,1348.553l1.959-.091a.923.923,0,0,1,.966.879l.091,1.958-1.959.091a.924.924,0,0,1-.966-.88Zm2.981,2.715-.09-1.926a.891.891,0,0,0-.931-.849l-1.927.09.09,1.926a.891.891,0,0,0,.931.849Z" transform="translate(-523.647 -1348.333)" fill="#fff"/>
        </g>
      </g>
    </g>
    <g id="Group_82136" data-name="Group 82136" transform="translate(441.457 209.17)">
      <g id="Group_82126" data-name="Group 82126" transform="translate(0 0.375)">
        <g id="Group_82125" data-name="Group 82125" clip-path="url(#clip-path-43)">
          <path id="Path_60810" data-name="Path 60810" d="M582.41,1052.3l3.574,1.238,1.063-3.068-3.574-1.238Z" transform="translate(-583.095 -1050.036)" fill="url(#linear-gradient-23)"/>
        </g>
      </g>
      <g id="Group_82130" data-name="Group 82130" transform="translate(0.512 1.064)" opacity="0.5">
        <g id="Group_82129" data-name="Group 82129">
          <g id="Group_82128" data-name="Group 82128" clip-path="url(#clip-path-44)">
            <g id="Group_82127" data-name="Group 82127" transform="translate(0.065 0.895)" clip-path="url(#clip-path-45)">
              <path id="Path_60812" data-name="Path 60812" d="M591.157,1064.225l-1.676-3.515-3.611,1.722,1.678,3.516Z" transform="translate(-586.938 -1062.454)" fill="url(#radial-gradient-12)"/>
            </g>
          </g>
        </g>
      </g>
      <g id="Group_82135" data-name="Group 82135" transform="translate(0.001 0)">
        <path id="Path_60814" data-name="Path 60814" d="M594.59,1064.33l.7,1.469a.813.813,0,0,0,1.085.384l1.469-.7-.7-1.469a.813.813,0,0,0-1.085-.385Z" transform="translate(-594.59 -1063.175)" fill="none" stroke="#fff" stroke-miterlimit="10" stroke-width="1.147"/>
        <g id="Group_82134" data-name="Group 82134" transform="translate(0.432)" opacity="0.3">
          <g id="Group_82133" data-name="Group 82133">
            <g id="Group_82132" data-name="Group 82132" clip-path="url(#clip-path-46)">
              <g id="Group_82131" data-name="Group 82131" transform="translate(0.486 0.375)" clip-path="url(#clip-path-47)">
                <path id="Path_60815" data-name="Path 60815" d="M592.565,1048.159l3.029-1.445-1.5-3.154-3.03,1.445Z" transform="translate(-592.177 -1044.686)" fill="url(#linear-gradient-24)"/>
              </g>
            </g>
          </g>
        </g>
        <path id="Path_60817" data-name="Path 60817" d="M598.069,1065.207a.724.724,0,0,1,.966.342l.662,1.389-1.389.662a.725.725,0,0,1-.966-.342l-.663-1.389Zm.944.353a.7.7,0,0,0-.932-.33l-1.366.652.652,1.366a.7.7,0,0,0,.933.33l1.366-.651Z" transform="translate(-596.562 -1064.672)" fill="#fff"/>
      </g>
    </g>
    <g id="Group_82147" data-name="Group 82147" transform="translate(449.278 235.903)">
      <g id="Group_82139" data-name="Group 82139" transform="translate(0 0.628)" opacity="0.5">
        <g id="Group_82138" data-name="Group 82138">
          <g id="Group_82137" data-name="Group 82137">
            <path id="Path_60818" data-name="Path 60818" d="M733.46,1544.372l1.658-1.612,2.659,2.735-1.658,1.612Z" transform="translate(-733.46 -1542.76)" fill="url(#radial-gradient-13)"/>
          </g>
        </g>
      </g>
      <g id="Group_82141" data-name="Group 82141" transform="translate(1.29 0.518)">
        <g id="Group_82140" data-name="Group 82140" clip-path="url(#clip-path-48)">
          <path id="Path_60819" data-name="Path 60819" d="M755.515,1534.75l-3.985-.084.082-3.876,3.984.084Z" transform="translate(-751.803 -1531.354)" fill="url(#linear-gradient-25)"/>
        </g>
      </g>
      <g id="Group_82146" data-name="Group 82146" transform="translate(1.261 0)">
        <path id="Path_60821" data-name="Path 60821" d="M759.9,1542.24l-1.19,1.157a.83.83,0,0,1-1.174-.016l-1.157-1.19,1.19-1.157a.83.83,0,0,1,1.174.016Z" transform="translate(-756.35 -1540.281)" fill="none" stroke="#fff" stroke-miterlimit="10" stroke-width="1.147"/>
        <g id="Group_82145" data-name="Group 82145" opacity="0.3">
          <g id="Group_82144" data-name="Group 82144">
            <g id="Group_82143" data-name="Group 82143" clip-path="url(#clip-path-49)">
              <g id="Group_82142" data-name="Group 82142" transform="translate(0.029 0.518)" clip-path="url(#clip-path-50)">
                <path id="Path_60822" data-name="Path 60822" d="M749.574,1528.962l-1.774-1.825,2.023-1.966L751.6,1527Z" transform="translate(-748.283 -1526.05)" fill="url(#linear-gradient-26)"/>
              </g>
            </g>
          </g>
        </g>
        <path id="Path_60824" data-name="Path 60824" d="M761.933,1543.767l-1.125,1.094a.739.739,0,0,1-1.045-.015l-1.094-1.125,1.125-1.094a.739.739,0,0,1,1.045.015Zm-3.227-.046,1.076,1.106a.712.712,0,0,0,1.008.015l1.106-1.076-1.076-1.106a.712.712,0,0,0-1.008-.015Z" transform="translate(-758.511 -1541.81)" fill="#fff"/>
      </g>
    </g>
    <g id="Group_82159" data-name="Group 82159" transform="translate(472.275 187.559)">
      <g id="Group_82149" data-name="Group 82149" transform="translate(1.087 0.924)">
        <g id="Group_82148" data-name="Group 82148" clip-path="url(#clip-path-51)">
          <path id="Path_60825" data-name="Path 60825" d="M1157.124,679.75l-4.044.855.716,3.385,4.044-.856Z" transform="translate(-1153.534 -680.302)" fill="url(#linear-gradient-27)"/>
        </g>
      </g>
      <g id="Group_82153" data-name="Group 82153" transform="translate(0 0)" opacity="0.5">
        <g id="Group_82152" data-name="Group 82152">
          <g id="Group_82151" data-name="Group 82151" clip-path="url(#clip-path-52)">
            <g id="Group_82150" data-name="Group 82150" transform="translate(0.665 0.053)" clip-path="url(#clip-path-53)">
              <path id="Path_60827" data-name="Path 60827" d="M1118.81,651.564l3.781,2.5,2.519-3.814-3.781-2.5Z" transform="translate(-1120.772 -649.232)" fill="url(#radial-gradient-14)"/>
            </g>
          </g>
        </g>
      </g>
      <g id="Group_82158" data-name="Group 82158" transform="translate(0.911 0.924)">
        <path id="Path_60829" data-name="Path 60829" d="M1164.993,690.718l-1.546-1.022a.928.928,0,0,0-1.285.262l-1.021,1.546,1.546,1.022a.927.927,0,0,0,1.284-.262Z" transform="translate(-1160.964 -689.543)" fill="none" stroke="#fff" stroke-miterlimit="10" stroke-width="0.218"/>
        <g id="Group_82157" data-name="Group 82157" transform="translate(0 0.502)" opacity="0.3">
          <g id="Group_82156" data-name="Group 82156">
            <g id="Group_82155" data-name="Group 82155" clip-path="url(#clip-path-54)">
              <g id="Group_82154" data-name="Group 82154" transform="translate(0.176 0.585)" clip-path="url(#clip-path-55)">
                <path id="Path_60830" data-name="Path 60830" d="M1142.684,675.73l-2.2,3.335,3.295,2.177,2.2-3.335Z" transform="translate(-1141.643 -677.594)" fill="url(#linear-gradient-28)"/>
              </g>
            </g>
          </g>
        </g>
        <path id="Path_60832" data-name="Path 60832" d="M1166.255,693.9a.825.825,0,0,1-1.143.234l-1.462-.966.966-1.462a.825.825,0,0,1,1.143-.234l1.462.966Zm-1.128.21a.8.8,0,0,0,1.1-.225l.95-1.438-1.438-.95a.8.8,0,0,0-1.1.225l-.95,1.438Z" transform="translate(-1163.333 -691.239)" fill="#fff"/>
      </g>
    </g>
    <g id="Group_82171" data-name="Group 82171" transform="translate(463.194 194.04)">
      <g id="Group_82161" data-name="Group 82161" transform="translate(0.657 0.558)">
        <g id="Group_82160" data-name="Group 82160" clip-path="url(#clip-path-56)">
          <path id="Path_60833" data-name="Path 60833" d="M989.817,792.22l-2.447.518.433,2.048,2.447-.518Z" transform="translate(-987.645 -792.553)" fill="url(#linear-gradient-29)"/>
        </g>
      </g>
      <g id="Group_82165" data-name="Group 82165" transform="translate(0 0)" opacity="0.5">
        <g id="Group_82164" data-name="Group 82164">
          <g id="Group_82163" data-name="Group 82163" clip-path="url(#clip-path-57)">
            <g id="Group_82162" data-name="Group 82162" transform="translate(0.402 0.032)" clip-path="url(#clip-path-58)">
              <path id="Path_60835" data-name="Path 60835" d="M966.63,775.167l2.287,1.511,1.524-2.307-2.287-1.511Z" transform="translate(-967.817 -773.757)" fill="url(#radial-gradient-15)"/>
            </g>
          </g>
        </g>
      </g>
      <g id="Group_82170" data-name="Group 82170" transform="translate(0.551 0.558)">
        <path id="Path_60837" data-name="Path 60837" d="M994.58,798.849l-.935-.618a.56.56,0,0,0-.777.159l-.618.935.935.618a.56.56,0,0,0,.777-.159Z" transform="translate(-992.144 -798.138)" fill="none" stroke="#fff" stroke-miterlimit="10" stroke-width="0.132"/>
        <g id="Group_82169" data-name="Group 82169" transform="translate(0 0.304)" opacity="0.3">
          <g id="Group_82168" data-name="Group 82168">
            <g id="Group_82167" data-name="Group 82167" clip-path="url(#clip-path-59)">
              <g id="Group_82166" data-name="Group 82166" transform="translate(0.106 0.354)" clip-path="url(#clip-path-60)">
                <path id="Path_60838" data-name="Path 60838" d="M981.082,789.79l-1.332,2.018,1.993,1.317,1.333-2.018Z" transform="translate(-980.454 -790.918)" fill="url(#linear-gradient-30)"/>
              </g>
            </g>
          </g>
        </g>
        <path id="Path_60840" data-name="Path 60840" d="M995.336,800.771a.5.5,0,0,1-.692.141l-.885-.585.585-.885a.5.5,0,0,1,.692-.141l.884.585Zm-.682.127a.482.482,0,0,0,.668-.137l.574-.87-.87-.574a.482.482,0,0,0-.668.137l-.574.87Z" transform="translate(-993.569 -799.158)" fill="#fff"/>
      </g>
    </g>
    <g id="Group_82185" data-name="Group 82185" transform="translate(460.175 158.583)">
      <g id="Group_82183" data-name="Group 82183" transform="translate(0 0)">
        <g id="Group_82173" data-name="Group 82173" transform="translate(12.433 3.856)">
          <g id="Group_82172" data-name="Group 82172" clip-path="url(#clip-path-61)">
            <path id="Path_60841" data-name="Path 60841" d="M1025.267,87.22l-17.607,18.31,15.327,14.738,17.607-18.31Z" transform="translate(-1015.549 -95.095)" fill="url(#linear-gradient-31)"/>
          </g>
        </g>
        <g id="Group_82177" data-name="Group 82177" opacity="0.5">
          <g id="Group_82176" data-name="Group 82176">
            <g id="Group_82175" data-name="Group 82175" clip-path="url(#clip-path-62)">
              <g id="Group_82174" data-name="Group 82174" transform="translate(8.908 0.514)" clip-path="url(#clip-path-63)">
                <path id="Path_60843" data-name="Path 60843" d="M898.365,158.526l27.846-.351-.355-28.085-27.846.352Z" transform="translate(-908.548 -132.208)" fill="url(#radial-gradient-16)"/>
              </g>
            </g>
          </g>
        </g>
        <g id="Group_82182" data-name="Group 82182" transform="translate(9.511 3.856)">
          <path id="Path_60845" data-name="Path 60845" d="M1164.763,227.06l-11.388.144a5.694,5.694,0,0,0-5.622,5.766l.144,11.389,11.388-.144a5.694,5.694,0,0,0,5.622-5.766Z" transform="translate(-1144.83 -227.06)" fill="none" stroke="#fff" stroke-miterlimit="10" stroke-width="1.342"/>
          <g id="Group_82181" data-name="Group 82181" transform="translate(0 0.402)" opacity="0.3">
            <g id="Group_82180" data-name="Group 82180">
              <g id="Group_82179" data-name="Group 82179" clip-path="url(#clip-path-64)">
                <g id="Group_82178" data-name="Group 82178" transform="translate(2.995 6.72)" clip-path="url(#clip-path-65)">
                  <path id="Path_60846" data-name="Path 60846" d="M1076.22,218.006l.31,24.558,24.261-.306-.311-24.558Z" transform="translate(-1080.321 -225.349)" fill="url(#linear-gradient-32)"/>
                </g>
              </g>
            </g>
          </g>
          <path id="Path_60848" data-name="Path 60848" d="M1174.722,249.035a5.071,5.071,0,0,1-5.007,5.135l-10.765.136-.136-10.765a5.071,5.071,0,0,1,5.007-5.136l10.765-.136Zm-5.01,4.958a4.894,4.894,0,0,0,4.831-4.956l-.133-10.587-10.587.133a4.892,4.892,0,0,0-4.832,4.955l.134,10.587Z" transform="translate(-1155.268 -237.639)" fill="#fff"/>
        </g>
      </g>
      <g id="Group_82184" data-name="Group 82184" transform="translate(16.4 5.448)">
        <path id="Path_60849" data-name="Path 60849" d="M1218.451,261.289a.5.5,0,0,1,.331-.06l1.312,1.794.826,2.063a.257.257,0,1,0,.471-.189l-.265-1.065,2.321,1.819a.34.34,0,0,0,.464.026c.091-.115.03-.314-.136-.444l-1.293-1.014a2.6,2.6,0,0,0,.192-.189l1.6,1.257a.257.257,0,1,0,.313-.4L1223,263.64c.053-.071.106-.144.158-.216l1.448,1.135a.254.254,0,0,0,.314-.4L1223.438,263l.079-.125,1,.78a.254.254,0,0,0,.313-.4l-.978-.828-.085-.057a8.523,8.523,0,0,0-1.647-1.137,3.832,3.832,0,0,0-.865-.05l-.474-.372v-3.869c0-.469.265-.849.591-.849s.591.38.591.849V260.6a5.958,5.958,0,0,1,.595-.076v-4.538a.573.573,0,1,1,1.131,0v4.51c.2,0,.4.011.595.021v-4.1a.565.565,0,1,1,1.13,0V260.6l.327.033v-2.817a.565.565,0,0,1,1.13,0l.109,2.852-.016.227a18.956,18.956,0,0,1-.271,4.448,8.534,8.534,0,0,1-1.1,1.584v1.863h-4.811v-2.363l-2.481-4.281A.62.62,0,0,1,1218.451,261.289Z" transform="translate(-1218.193 -255.32)" fill="#fff"/>
      </g>
    </g>
    <g id="Group_82198" data-name="Group 82198" transform="translate(475.098 237.085)">
      <g id="Group_82187" data-name="Group 82187" transform="translate(1.308 0.002)">
        <g id="Group_82186" data-name="Group 82186" clip-path="url(#clip-path-66)">
          <path id="Path_60850" data-name="Path 60850" d="M1197.59,1509.422l13.185-2.8,1.542,7.255-13.186,2.8Z" transform="translate(-1198.581 -1509.212)" fill="url(#linear-gradient-33)"/>
        </g>
      </g>
      <g id="Group_82189" data-name="Group 82189" transform="translate(27.643 5.461)">
        <g id="Group_82188" data-name="Group 82188" clip-path="url(#clip-path-67)">
          <rect id="Rectangle_148224" data-name="Rectangle 148224" width="9.92" height="11.981" transform="translate(-0.414 0.001)" fill="url(#linear-gradient-34)"/>
        </g>
      </g>
      <g id="Group_82191" data-name="Group 82191" transform="translate(0 6.434)">
        <g id="Group_82190" data-name="Group 82190" clip-path="url(#clip-path-68)">
          <rect id="Rectangle_148225" data-name="Rectangle 148225" width="9.028" height="10.871" transform="translate(-0.651 -0.001)" fill="url(#linear-gradient-35)"/>
        </g>
      </g>
      <g id="Group_82193" data-name="Group 82193" transform="translate(1.406 5.302)">
        <g id="Group_82192" data-name="Group 82192" clip-path="url(#clip-path-69)">
          <rect id="Rectangle_148226" data-name="Rectangle 148226" width="33.675" height="13.636" transform="translate(0 -0.175)" fill="url(#linear-gradient-36)"/>
        </g>
      </g>
      <g id="Group_82195" data-name="Group 82195" transform="translate(2.07)">
        <g id="Group_82194" data-name="Group 82194" clip-path="url(#clip-path-70)">
          <rect id="Rectangle_148227" data-name="Rectangle 148227" width="16.457" height="18.385" transform="translate(0 0.001)" fill="url(#linear-gradient-37)"/>
        </g>
      </g>
      <g id="Group_82197" data-name="Group 82197" transform="translate(18.578 4.107)">
        <g id="Group_82196" data-name="Group 82196" clip-path="url(#clip-path-71)">
          <rect id="Rectangle_148228" data-name="Rectangle 148228" width="16.128" height="22.569" transform="translate(-0.055 0.001)" fill="url(#linear-gradient-38)"/>
        </g>
      </g>
    </g>
    <g id="Group_82199" data-name="Group 82199" transform="translate(463.63 265.158)">
      <path id="Path_60857" data-name="Path 60857" d="M1359.56,2099.951h1.416l.015,1.046.131-.177a2.248,2.248,0,0,1,.726-.67,2.571,2.571,0,0,1,1.4-.356,3.6,3.6,0,0,1,.716.082,1.833,1.833,0,0,1,1.306,1.291,15.953,15.953,0,0,1,.087,1.948v3.2h-.291c-.937-.007-1.127-.422-1.189-.733v-.009l-.007-2.862a1.7,1.7,0,0,0-.617-1.533,1.189,1.189,0,0,0-.63-.156,1.38,1.38,0,0,0-1.159.613,2.868,2.868,0,0,0-.363,1.606l-.016,3.072-1.517,0Z" transform="translate(-1338.654 -2097.05)" fill="#ee4138"/>
      <path id="Path_60858" data-name="Path 60858" d="M1766.38,2099.951h1.415l.015,1.046.131-.177a2.227,2.227,0,0,1,.726-.67,2.571,2.571,0,0,1,1.4-.356,3.606,3.606,0,0,1,.716.082,1.834,1.834,0,0,1,1.306,1.291,15.857,15.857,0,0,1,.088,1.948v3.2h-.291c-.937-.007-1.127-.422-1.192-.733v-.009l-.007-2.862a1.7,1.7,0,0,0-.617-1.533,1.189,1.189,0,0,0-.63-.156,1.381,1.381,0,0,0-1.159.613,2.873,2.873,0,0,0-.365,1.606l-.016,3.07-1.517,0Z" transform="translate(-1722.565 -2097.05)" fill="#ee4138"/>
      <path id="Path_60859" data-name="Path 60859" d="M1953.328,2106.358a6.592,6.592,0,0,1-1.767-.248l-.092-.03.028-.243v-.005a.839.839,0,0,1,.884-.781h.041a3.213,3.213,0,0,0,.7.081c.813,0,1.183-.385,1.183-.744a.725.725,0,0,0-.475-.6,6.134,6.134,0,0,0-.709-.271,6.614,6.614,0,0,1-.622-.232,1.711,1.711,0,0,1-1.089-1.6,1.842,1.842,0,0,1,.237-.886,2.511,2.511,0,0,1,2.3-1.02,6.139,6.139,0,0,1,1.566.2l.068.016v.07c0,.081-.007.2-.019.314-.029.274-.249.605-.475.605h-.029c-.061-.007-.123-.018-.184-.031a3.248,3.248,0,0,0-.7-.065,1.793,1.793,0,0,0-.859.177.642.642,0,0,0-.375.564c0,.346.3.466.514.558s.447.161.666.229a6.725,6.725,0,0,1,.764.271,1.688,1.688,0,0,1,.98,1.607,1.79,1.79,0,0,1-.628,1.4A2.758,2.758,0,0,1,1953.328,2106.358Z" transform="translate(-1897.175 -2097.039)" fill="#ee4138"/>
      <path id="Path_60860" data-name="Path 60860" d="M1889.414,2076.822a3.716,3.716,0,0,1-.962.141,2.284,2.284,0,0,1-1.537-.532,3.1,3.1,0,0,1-.518-2.229v-3.822l.006-.444c0-.646.385-1.051,1.176-1.244l.01,0h.3v1.75h1.409s.13,1.1-.387,1.12l-1.031.01v2.957c.016.5-.065,1.265,1.024,1.175C1888.906,2075.7,1889.484,2075.688,1889.414,2076.822Z" transform="translate(-1835.82 -2067.7)" fill="#ee4138"/>
      <path id="Path_60861" data-name="Path 60861" d="M990.521,2106.343a2.269,2.269,0,0,1-1.917-.927,1.784,1.784,0,0,1-.285-.982,1.9,1.9,0,0,1,.311-1.024c.63-.916,1.953-1.022,2.893-1.022.328,0,.663.013.951.025l.063,0v-.063a2.645,2.645,0,0,0-.1-.7,1.288,1.288,0,0,0-1.359-.771,3.353,3.353,0,0,0-1.263.259,2.093,2.093,0,0,1-.247.083.2.2,0,0,1-.052.005c-.189,0-.315-.265-.4-.836l-.02-.158.068-.023a5.627,5.627,0,0,1,2.068-.387,4.1,4.1,0,0,1,.939.094,1.982,1.982,0,0,1,1.6,1.258,4.794,4.794,0,0,1,.155,1.51l.022,3.66h-.7c-.378,0-.6-.5-.69-.791a2.354,2.354,0,0,1-2,.79h-.039Zm1.363-3.026a3.046,3.046,0,0,0-1.5.295,1.075,1.075,0,0,0-.363.39.826.826,0,0,0-.118.433.962.962,0,0,0,.09.376,1.029,1.029,0,0,0,.97.539,1.573,1.573,0,0,0,1.232-.622,2.192,2.192,0,0,0,.377-1.284l.008-.1-.127-.012c-.171,0-.366-.01-.569-.01" transform="translate(-988.319 -2097.08)" fill="#ee4138"/>
      <path id="Path_60862" data-name="Path 60862" d="M1199.743,2108.983a1.192,1.192,0,0,1-1.183-1.114v-5.249h1.537v6.364h-.354Z" transform="translate(-1186.72 -2099.72)" fill="#ee4138"/>
      <path id="Path_60863" data-name="Path 60863" d="M1720.143,2108.983a1.192,1.192,0,0,1-1.183-1.114v-5.249h1.537v6.364h-.354Z" transform="translate(-1677.815 -2099.72)" fill="#ee4138"/>
      <path id="Path_60864" data-name="Path 60864" d="M1195.65,2053.242a.1.1,0,0,1-.074-.06.56.56,0,0,1-.064-.17.782.782,0,0,0-.03-.1l-.009-.01,0-.01a.038.038,0,0,0,0-.009.171.171,0,0,1-.088-.066.409.409,0,0,1-.123-.048l-.02-.011-.005,0a.16.16,0,0,1-.046-.072.168.168,0,0,1-.046-.059l-.016-.027v-.014l-.017-.012-.007-.037a.138.138,0,0,1,.026-.1.168.168,0,0,1-.023-.1l-.008,0-.007-.009-.005-.01a1.008,1.008,0,0,1-.052-.359.63.63,0,0,0-.006-.086l-.023-.056.048-.034a.154.154,0,0,1,.07-.078.172.172,0,0,1,.028-.044.112.112,0,0,1,.09-.042.35.35,0,0,1,.087.016.1.1,0,0,1,.037-.034l.007,0a.19.19,0,0,1,.017-.029v-.042l.074-.025h.021a.075.075,0,0,1,.028,0,.217.217,0,0,1,.022-.048.11.11,0,0,1,.052-.085.12.12,0,0,1,.052-.019.115.115,0,0,1,.042-.038l.017-.009h.009c.017-.008.057-.035.082-.052a.656.656,0,0,1,.118-.068.154.154,0,0,1,.1-.04h.015a.11.11,0,0,1,.065-.02.109.109,0,0,1,.061.021l.01-.012.058.024a.1.1,0,0,1,.043.033l.006.005a.167.167,0,0,1,.04.026h.052l.029.04a.1.1,0,0,1,.016.065.049.049,0,0,1,0,.01.1.1,0,0,1,.033.025l.006.008h.012l.026.044a.189.189,0,0,1,.017.033l.012.012.019.018a.271.271,0,0,1,.077.089c.013.015.046.048.064.066.048.047.064.063.072.084s.018.034.023.042l.01.015,0,.02c0,.012.033.1.04.122l.01.02a.145.145,0,0,1,.017.024l.042.04-.017.035a.057.057,0,0,0,.006.016.2.2,0,0,1,.061.117l.005.022-.007.022v0a.656.656,0,0,1-.3.534.11.11,0,0,1-.039.018.106.106,0,0,1-.044.046.1.1,0,0,1-.061.019.113.113,0,0,1-.036-.006.179.179,0,0,1-.034,0h-.014a.111.111,0,0,1-.03.056l-.041.041-.032-.013a.143.143,0,0,1-.03,0h0l-.009.012a.113.113,0,0,1-.044.02c-.007.06-.022.146-.1.156a.2.2,0,0,1-.048.006.128.128,0,0,1-.046.027.11.11,0,0,1-.052.094.429.429,0,0,1-.133.027.162.162,0,0,1-.052.007.238.238,0,0,1-.044,0h-.017l-.057.011Z" transform="translate(-1183.361 -2051.12)" fill="#ee4138"/>
      <path id="Path_60865" data-name="Path 60865" d="M1716.1,2053.259a.1.1,0,0,1-.073-.06.559.559,0,0,1-.064-.17.613.613,0,0,0-.03-.1l-.009-.01,0-.01a.045.045,0,0,0,0-.009.164.164,0,0,1-.087-.066.41.41,0,0,1-.123-.048l-.019-.011-.006,0a.151.151,0,0,1-.046-.071.167.167,0,0,1-.046-.059l-.019-.028v-.013l-.014-.012-.007-.037a.127.127,0,0,1,.026-.1.169.169,0,0,1-.023-.1l-.005-.006-.007-.009-.005-.009a1,1,0,0,1-.052-.359l-.006-.086-.023-.055.048-.034a.148.148,0,0,1,.07-.078.227.227,0,0,1,.028-.045.1.1,0,0,1,.09-.043.347.347,0,0,1,.086.016.107.107,0,0,1,.037-.034l.007,0a.125.125,0,0,1,.017-.029v-.04l.074-.025h.02a.079.079,0,0,1,.023,0,.251.251,0,0,1,.022-.048.11.11,0,0,1,.052-.085.143.143,0,0,0,.093-.057l.017-.009h.009c.017-.008.057-.035.082-.052a.713.713,0,0,1,.117-.068.154.154,0,0,1,.1-.04h.015a.1.1,0,0,1,.124,0l.01-.012.058.024a.091.091,0,0,1,.043.033l.005,0a.138.138,0,0,1,.04.027h.052l.029.04a.1.1,0,0,1,.016.065s0,.007.005.011a.1.1,0,0,1,.033.024l.006.009h.013l.025.044a.132.132,0,0,1,.02.033l.012.012.02.018a.271.271,0,0,1,.077.089c.013.015.046.048.064.066.048.047.064.063.072.084a.3.3,0,0,0,.024.042l.01.015,0,.02c0,.012.033.1.041.122l.009.02a.12.12,0,0,1,.017.024l.042.04-.017.035a.057.057,0,0,0,.006.016.2.2,0,0,1,.061.117l0,.022-.007.022v0a.657.657,0,0,1-.3.534.116.116,0,0,1-.039.017.106.106,0,0,1-.045.046.1.1,0,0,1-.061.019.107.107,0,0,1-.036-.006.177.177,0,0,1-.034,0h-.014a.116.116,0,0,1-.03.056l-.042.039-.031-.011a.133.133,0,0,1-.031,0h0l-.008.011a.12.12,0,0,1-.043.021c-.007.06-.021.146-.1.155a.191.191,0,0,1-.048.006.129.129,0,0,1-.046.026.11.11,0,0,1-.052.095.426.426,0,0,1-.134.026.162.162,0,0,1-.052.007.213.213,0,0,1-.043,0h-.017l-.057.012Z" transform="translate(-1674.512 -2051.137)" fill="#ee4138"/>
      <path id="Path_60866" data-name="Path 60866" d="M1478.668,2100.792a2.87,2.87,0,0,1,2.125-1.03h.026a2.341,2.341,0,0,1,1.788.8,3.54,3.54,0,0,1,.743,2.368,4.948,4.948,0,0,1-.228,1.533,2.453,2.453,0,0,1-2.46,1.843,2.23,2.23,0,0,1-1.446-.5,2.782,2.782,0,0,1-.327-.361l-.1-.122s-.061.011-.069.129c-.005.068-.011.146-.02.207.016.256,0,.514.007.771-.012.207.007.428-.012.636-.008.279-.016.558-.03.845a1.445,1.445,0,0,1,0,.211c0,.09-.015.161-.021.247-.018.036,0,.075-.034.1a.317.317,0,0,0-.148.228c-.016.523-.044,1.062-.065,1.594a.967.967,0,0,1-.052.3l-.108.14-.032.211c-.017.013-.017.033-.039.04a2.867,2.867,0,0,1,0-.333v-.278l-.021-.033a7.993,7.993,0,0,0-.1.85c-.008.013-.029,0-.037-.005a.98.98,0,0,1-.028-.289.339.339,0,0,1-.076-.3l.012-.367a.511.511,0,0,1-.012-.137c-.034-.015-.075-.024-.083-.068a.028.028,0,0,0-.015-.024c.03-.207.014-.409.038-.617-.024-.052.007-.121,0-.183.025-.286.031-.575.029-.86-.032-.024-.01-.09-.061-.086-.057.269-.063.56-.114.829.016.062-.013.1-.013.173a.282.282,0,0,1,.068.215c-.021.026-.017.061-.044.082l.015.112c-.025.052-.052.1-.075.149-.011.005-.03.013-.04,0a1.292,1.292,0,0,1,.011-.36c0-.107.005-.235,0-.353.022-.469.009-.914,0-1.387-.007,0-.023-.023-.035,0a4.027,4.027,0,0,1-.086.505,6.091,6.091,0,0,1-.017-1.119c-.007-.3.01-.617,0-.93.005-.187-.08-.3-.084-.16a4.987,4.987,0,0,0-.011.7c0,.433-.025.893-.033,1.331.008.207-.036.409-.025.622a1.152,1.152,0,0,0,0,.3c-.011.035,0,.079-.041.094-.024-.03-.088-.024-.075-.081a.086.086,0,0,1,.042-.091.76.76,0,0,0-.026-.36c-.015-.128.055-.24.038-.366-.02-.015,0-.052-.024-.062a.236.236,0,0,1-.01-.119.686.686,0,0,0,.015-.331c0-.077-.057-.134-.052-.216a4.238,4.238,0,0,1,0-.566c0-.15.011-.319.011-.479s0-.354-.011-.525c.011-.286,0-.57,0-.872-.01-.013-.012-.03-.027-.036-.029.134-.106.059-.132-.021a1.435,1.435,0,0,0,.009-.245,1.342,1.342,0,0,0,.011-.2c-.015-.322.029-.652.014-.958.017-.353-.014-.7.027-1.046l-.005-.2c.008-.319.015-.65.018-.969-.011-.089-.007-.18-.014-.272-.007-.006-.022-.014-.027,0a.747.747,0,0,0-.052.225c-.018.025-.049.04-.074.016a1.5,1.5,0,0,1-.035-.238,2.107,2.107,0,0,1,.042-.444l.016-.028a2.591,2.591,0,0,1,.1-.726.136.136,0,0,1,.118-.083c.084,0,.124.1.168.158.066-.011.144.015.2-.035.1-.028.059.106.1.15.033.06.094.052.146.052.178-.011.064-.317.259-.259a.189.189,0,0,0,.193.1c.126.046.3.037.35.2a1,1,0,0,1,.046.311C1478.683,2100.561,1478.668,2100.792,1478.668,2100.792Zm1.655.233a1.544,1.544,0,0,0-.842.256,2.444,2.444,0,0,0,.064,3.632,1.434,1.434,0,0,0,.689.166,1.248,1.248,0,0,0,.575-.128c.869-.421.936-1.612.933-1.969a2.122,2.122,0,0,0-.733-1.762,1.254,1.254,0,0,0-.686-.195Z" transform="translate(-1449.412 -2097.02)" fill="#ee4138"/>
      <path id="Path_60867" data-name="Path 60867" d="M1238.412,2106.306a2.272,2.272,0,0,1-1.917-.927,1.79,1.79,0,0,1-.285-.981,1.893,1.893,0,0,1,.311-1.024c.63-.916,1.954-1.022,2.894-1.022.328,0,.662.013.951.025l.063,0v-.063a2.688,2.688,0,0,0-.1-.7,1.289,1.289,0,0,0-1.362-.772,3.357,3.357,0,0,0-1.263.259,2.088,2.088,0,0,1-.247.083.206.206,0,0,1-.052.005c-.189,0-.315-.265-.4-.836l-.02-.159.068-.022a5.62,5.62,0,0,1,2.067-.387,4.157,4.157,0,0,1,.939.094,1.985,1.985,0,0,1,1.6,1.259,4.778,4.778,0,0,1,.155,1.51l.022,3.66h-.692c-.378,0-.6-.5-.69-.791a2.355,2.355,0,0,1-2,.789Zm1.362-3.026a3.048,3.048,0,0,0-1.5.3,1.075,1.075,0,0,0-.363.39.826.826,0,0,0-.118.433.962.962,0,0,0,.09.375,1.03,1.03,0,0,0,.97.539,1.573,1.573,0,0,0,1.232-.622,2.194,2.194,0,0,0,.377-1.284l.008-.1-.127,0c-.189-.012-.379-.018-.568-.018Z" transform="translate(-1222.25 -2097.042)" fill="#ee4138"/>
      <path id="Path_60868" data-name="Path 60868" d="M1603.991,2106.306a2.272,2.272,0,0,1-1.917-.927,1.785,1.785,0,0,1-.285-.981,1.892,1.892,0,0,1,.311-1.024c.63-.916,1.952-1.022,2.893-1.022.328,0,.663.013.951.025l.063,0v-.063a2.648,2.648,0,0,0-.1-.7,1.289,1.289,0,0,0-1.362-.772,3.354,3.354,0,0,0-1.263.259,2.09,2.09,0,0,1-.247.083.2.2,0,0,1-.052.005c-.19,0-.315-.265-.4-.836l-.02-.159.068-.022a5.622,5.622,0,0,1,2.068-.387,4.171,4.171,0,0,1,.94.094,1.984,1.984,0,0,1,1.6,1.258,4.779,4.779,0,0,1,.155,1.51l.022,3.66h-.688c-.378,0-.6-.5-.69-.791a2.355,2.355,0,0,1-2,.79Zm1.362-3.026a3.043,3.043,0,0,0-1.5.3,1.07,1.07,0,0,0-.363.39.831.831,0,0,0-.118.433.97.97,0,0,0,.089.375,1.03,1.03,0,0,0,.973.539,1.575,1.575,0,0,0,1.232-.622,2.194,2.194,0,0,0,.377-1.284l.008-.1-.127,0q-.285-.019-.569-.019Z" transform="translate(-1567.243 -2097.042)" fill="#ee4138"/>
      <path id="Path_60869" data-name="Path 60869" d="M1105.122,2106.358a6.614,6.614,0,0,1-1.768-.248l-.091-.03.028-.243v-.005a.838.838,0,0,1,.881-.781h.041a3.213,3.213,0,0,0,.7.081c.814,0,1.184-.385,1.184-.744a.727.727,0,0,0-.475-.6,6.093,6.093,0,0,0-.71-.271,6.623,6.623,0,0,1-.622-.232,1.711,1.711,0,0,1-1.089-1.6,1.84,1.84,0,0,1,.237-.886,2.511,2.511,0,0,1,2.3-1.02,6.134,6.134,0,0,1,1.565.2l.068.016v.07c0,.081-.007.2-.019.314-.029.274-.249.605-.475.605h-.028c-.062-.007-.123-.018-.184-.031a3.242,3.242,0,0,0-.7-.065,1.8,1.8,0,0,0-.86.177.641.641,0,0,0-.373.567c0,.346.3.466.514.557s.446.161.665.229a6.654,6.654,0,0,1,.764.271,1.688,1.688,0,0,1,.98,1.607,1.79,1.79,0,0,1-.628,1.4A2.756,2.756,0,0,1,1105.122,2106.358Z" transform="translate(-1096.731 -2097.039)" fill="#ee4138"/>
    </g>
    <path id="Path_60870" data-name="Path 60870" d="M637.491,572.822a28.045,28.045,0,0,0-14.271-4.135h0l-.367,0q-.761,0-1.512.04.663-1,1.241-2.061l-.019.008q.322-.581.619-1.184.138-.279.269-.559a.019.019,0,0,0,0-.006,28.039,28.039,0,0,0,2.519-14.532c-.012.226-.027.451-.045.677a27.1,27.1,0,0,1-9.252,18.272l-.01.009a27.828,27.828,0,0,0-5.421,1.8l-.165.074c-.042.018-.083.037-.124.057q-.626.29-1.236.609l0-.008a27.911,27.911,0,0,0-3.295,2.005l0,.008a28.235,28.235,0,0,0-2.3,1.821c-.009.018-.019.034-.028.051a28.5,28.5,0,0,0-2.112,2.078c0-.02,0-.039,0-.059a29.267,29.267,0,0,0-1.362-11.55,28.355,28.355,0,0,1-1.87,15.8c-.038.09-.077.18-.116.269q-.217.359-.424.724a28.042,28.042,0,0,0-2.242,5.088h0q-.4,1.225-.689,2.5a28.3,28.3,0,0,0-.7,6.263q0,.937.06,1.858c0,.014,0,.028,0,.042a28.071,28.071,0,0,0,1.2,6.483c.029.1.06.191.091.286a28.256,28.256,0,0,0,10.717,14.463q.176.123.353.244l.131.088a28.059,28.059,0,0,0,15.631,4.727h.362c.17,0,.338,0,.506-.014h0a9.319,9.319,0,0,0,2.145-.367l-.124-.006-.13-.006c-.15-.007-.3-.016-.45-.027h0a27.022,27.022,0,0,1-23.145-37.171l.016,0a26.638,26.638,0,0,1,1.206-2.553h-.014c.13-.241.264-.479.4-.715l.014,0,.019-.032a13.735,13.735,0,0,1,13.714,2.719,13.7,13.7,0,0,0-10.76-5.207c-.467,0-.93.024-1.385.07q.127-.173.256-.344l.019-.008a27.112,27.112,0,0,1,2.912-3.259l-.013,0a26.981,26.981,0,0,1,10.472-6.193l.081-.025.051-.016.274-.083.124-.037.069-.02.2-.058c.081-.023.161-.046.242-.067l.16-.043.146-.038.135-.035.114-.029.175-.043c.082-.02.163-.04.246-.059l.246-.056.178-.039a27.164,27.164,0,0,1,15.166,1.1q.474.177.94.372l.207.087Z" transform="translate(-153.132 -369.743)" fill="url(#linear-gradient-39)"/>
  </g>
</svg>
