<svg xmlns="http://www.w3.org/2000/svg" width="23" height="15.682" viewBox="0 0 23 15.682">
  <path id="preview" d="M51.5,268.284a4.423,4.423,0,1,0-3.149-1.294A4.278,4.278,0,0,0,51.5,268.284Zm-.009-1.516a2.809,2.809,0,0,1-2.072-.856,2.839,2.839,0,0,1-.849-2.078,2.809,2.809,0,0,1,.856-2.072,2.839,2.839,0,0,1,2.078-.849,2.809,2.809,0,0,1,2.072.856,2.839,2.839,0,0,1,.849,2.078,2.809,2.809,0,0,1-.856,2.072A2.839,2.839,0,0,1,51.494,266.768Zm.006,4.914a11.714,11.714,0,0,1-6.9-2.169,13.216,13.216,0,0,1-4.6-5.672,13.216,13.216,0,0,1,4.6-5.672,12.058,12.058,0,0,1,13.8,0,13.216,13.216,0,0,1,4.6,5.672,13.215,13.215,0,0,1-4.6,5.672A11.714,11.714,0,0,1,51.5,271.682ZM51.5,263.841Zm0,6.273a10.518,10.518,0,0,0,5.82-1.712,11.109,11.109,0,0,0,4.038-4.561,11.119,11.119,0,0,0-4.034-4.561,10.741,10.741,0,0,0-11.635,0,11.3,11.3,0,0,0-4.064,4.561,11.306,11.306,0,0,0,4.06,4.561A10.5,10.5,0,0,0,51.5,270.114Z" transform="translate(-40 -256)" fill="#fff"/>
</svg>
