<svg xmlns="http://www.w3.org/2000/svg" width="13.895" height="13.895" viewBox="0 0 13.895 13.895">
  <path id="tel-icon" d="M19.026,19.895a10.41,10.41,0,0,1-4.68-1.158,16.061,16.061,0,0,1-7.189-7.189A10.41,10.41,0,0,1,6,6.868.857.857,0,0,1,6.868,6h2.7a.683.683,0,0,1,.473.183.853.853,0,0,1,.261.492l.521,2.432a1.388,1.388,0,0,1-.01.492.744.744,0,0,1-.2.376l-1.93,1.949A16.022,16.022,0,0,0,11.1,15.051a13.385,13.385,0,0,0,3.04,2.258l1.833-1.891a1.067,1.067,0,0,1,.444-.3.892.892,0,0,1,.5-.029l2.3.5a.843.843,0,0,1,.675.83v2.605a.857.857,0,0,1-.868.868ZM8.1,10.863,9.667,9.281,9.223,7.158H7.158a6.643,6.643,0,0,0,.232,1.65A15.555,15.555,0,0,0,8.1,10.863Zm7.121,7.005a9.632,9.632,0,0,0,1.718.6,9.057,9.057,0,0,0,1.795.27V16.672l-1.988-.405ZM8.1,10.863ZM15.225,17.869Z" transform="translate(-6 -6)" fill="#5d417d"/>
</svg>
