<svg width="13" height="14" viewBox="0 0 13 14" fill="none" xmlns="http://www.w3.org/2000/svg">
<path d="M1 3.32803H2.22222H12" stroke="#EE4238" stroke-linecap="round" stroke-linejoin="round"/>
<path d="M10.5556 3.32804V11.4762C10.5556 11.7849 10.4268 12.081 10.1976 12.2993C9.96836 12.5176 9.65749 12.6402 9.33333 12.6402H3.22222C2.89807 12.6402 2.58719 12.5176 2.35798 12.2993C2.12877 12.081 2 11.7849 2 11.4762V3.32804M3.83333 3.32804V2.16402C3.83333 1.8553 3.9621 1.55923 4.19131 1.34093C4.42053 1.12264 4.7314 1 5.05556 1H7.5C7.82415 1 8.13503 1.12264 8.36424 1.34093C8.59345 1.55923 8.72222 1.8553 8.72222 2.16402V3.32804" stroke="#EE4238" stroke-linecap="round" stroke-linejoin="round"/>
<path d="M5.27783 6.2381V9.73016" stroke="#EE4238" stroke-linecap="round" stroke-linejoin="round"/>
<path d="M7.72217 6.2381V9.73016" stroke="#EE4238" stroke-linecap="round" stroke-linejoin="round"/>
</svg>
