<svg width="13" height="13" viewBox="0 0 13 13" fill="none" xmlns="http://www.w3.org/2000/svg">
<path d="M5.92015 2.1597H2.09337C1.80339 2.1597 1.52529 2.27489 1.32024 2.47994C1.11519 2.68498 1 2.96309 1 3.25307V10.9066C1 11.1966 1.11519 11.4747 1.32024 11.6798C1.52529 11.8848 1.80339 12 2.09337 12H9.74694C10.0369 12 10.315 11.8848 10.5201 11.6798C10.7251 11.4747 10.8403 11.1966 10.8403 10.9066V7.07985" stroke="#78AE38" stroke-linecap="round" stroke-linejoin="round"/>
<path d="M10.0203 1.33967C10.2378 1.12218 10.5328 1 10.8404 1C11.1479 1 11.4429 1.12218 11.6604 1.33967C11.8779 1.55715 12 1.85212 12 2.15969C12 2.46726 11.8779 2.76223 11.6604 2.97972L6.46689 8.17321L4.28015 8.7199L4.82684 6.53316L10.0203 1.33967Z" stroke="#78AE38" stroke-linecap="round" stroke-linejoin="round"/>
</svg>
