<?xml version="1.0" encoding="UTF-8"?><svg id="Layer_1" xmlns="http://www.w3.org/2000/svg" viewBox="0 0 32 32"><defs><style>.cls-1{fill:#2f47c2;}.cls-2{fill:#ffb126;}</style></defs><path class="cls-1" d="M23,10.33V6.33c0-1.1-.9-2-2-2H5c-1.1,0-2,.9-2,2V22.33c0,.39,.22,.74,.58,.9,.13,.07,.27,.1,.42,.1,.23,.01,.45-.07,.62-.22l2.3-1.85,2.08-1.68v.02l.4-.32,1.85,.05h9.75c1.1,0,2-.89,2-2v-5h.01v-2h-.01Zm-2,7H8.95c-.23,0-.45,.08-.63,.23l-3.32,2.67V6.33H21v11Z"/><path class="cls-2" d="M27,10.33h-1.99v2h1.99v13.9l-3.33-2.67c-.17-.15-.39-.23-.62-.23H11v-3.24l-2,.57v2.67c0,1.11,.9,2,2,2h11.7l4.68,3.78c.29,.24,.7,.29,1.04,.12,.36-.16,.58-.51,.58-.9V12.33c0-1.1-.9-2-2-2Z"/></svg>