<svg xmlns="http://www.w3.org/2000/svg" width="19.486" height="19.486" viewBox="0 0 19.486 19.486">
  <path id="check_circle_FILL1_wght400_GRAD0_opsz48" d="M12.306,18.176,19.2,11.283l-1.12-1.1L12.306,15.96,9.383,13.037l-1.1,1.1Zm1.437,5.31a9.427,9.427,0,0,1-3.775-.767,9.816,9.816,0,0,1-5.2-5.2,9.733,9.733,0,0,1,0-7.575A9.737,9.737,0,0,1,6.862,6.85,9.988,9.988,0,0,1,9.968,4.767a9.733,9.733,0,0,1,7.575,0,9.728,9.728,0,0,1,5.176,5.176,9.733,9.733,0,0,1,0,7.575,9.988,9.988,0,0,1-2.083,3.106,9.737,9.737,0,0,1-3.093,2.095A9.488,9.488,0,0,1,13.743,23.486Z" transform="translate(-4 -4)" fill="#78ae38"/>
</svg>
