<svg xmlns="http://www.w3.org/2000/svg" width="19.834" height="14.012" viewBox="0 0 19.834 14.012">
  <path id="folder_open_FILL0_wght400_GRAD0_opsz48" d="M5.384,22.012a1.357,1.357,0,0,1-.957-.405A1.228,1.228,0,0,1,4,20.7V9.314a1.228,1.228,0,0,1,.427-.909A1.357,1.357,0,0,1,5.384,8h6.481l1.384,1.314h7.818a1.357,1.357,0,0,1,.957.405,1.228,1.228,0,0,1,.427.909h-9.8L11.265,9.314H5.384V20.7l2.352-8.757h16.1L21.366,21a1.248,1.248,0,0,1-.507.766,1.7,1.7,0,0,1-.946.241ZM6.837,20.7H20.029l1.937-7.444H8.774Zm0,0,1.937-7.444ZM5.384,10.627v0Z" transform="translate(-4 -8)" fill="#7a7a7a"/>
</svg>
