<svg xmlns="http://www.w3.org/2000/svg" width="18.482" height="13.303" viewBox="0 0 18.482 13.303">
  <path id="wifi_FILL0_wght400_GRAD0_opsz48" d="M4.466,16.529,3.254,15.316a9.762,9.762,0,0,1,2.82-2.021,7.521,7.521,0,0,1,3.167-.674,7.521,7.521,0,0,1,3.167.674,9.762,9.762,0,0,1,2.82,2.021l-1.213,1.213a7.534,7.534,0,0,0-2.368-1.675,6.035,6.035,0,0,0-4.813,0,7.534,7.534,0,0,0-2.368,1.675ZM1.213,13.275,0,12.062A14.262,14.262,0,0,1,4.168,9.117,11.786,11.786,0,0,1,9.241,8a11.786,11.786,0,0,1,5.073,1.117,14.262,14.262,0,0,1,4.168,2.946l-1.213,1.213a14.272,14.272,0,0,0-3.706-2.58,9.885,9.885,0,0,0-4.322-.963,9.885,9.885,0,0,0-4.322.963A14.272,14.272,0,0,0,1.213,13.275ZM9.241,21.3l2.849-2.869a4.171,4.171,0,0,0-1.28-.876,4.034,4.034,0,0,0-3.138,0,4.171,4.171,0,0,0-1.28.876Z" transform="translate(0 -8)" fill="#fff"/>
</svg>
