<svg xmlns="http://www.w3.org/2000/svg" width="23.303" height="18.999" viewBox="0 0 23.303 18.999">
  <g id="quote-icon" transform="translate(-17976.018 -14361.332)">
    <path id="Path_60281" data-name="Path 60281" d="M15.336,6.75H10.4C8.391,6.75,6.75,8.032,6.75,9.6v7.6c0,1.567,1.641,2.849,3.647,2.849h2.941c.35,0,.631.231.608.51a6.617,6.617,0,0,1-2.378,4.4c-.357.309-.076.8.448.8h3.032a.66.66,0,0,0,.479-.184,7.97,7.97,0,0,0,2.166-5.573V8.6c0-1.056-1.011-1.846-2.355-1.846Z" transform="translate(18006.07 14387.08) rotate(180)" fill="#f9a72c"/>
    <path id="Path_60282" data-name="Path 60282" d="M27.711,6.75H22.772c-2.006,0-3.647,1.282-3.647,2.849v7.6c0,1.567,1.641,2.849,3.647,2.849h2.941c.35,0,.631.231.608.51a6.617,6.617,0,0,1-2.378,4.4c-.357.309-.076.8.448.8h3.032a.66.66,0,0,0,.479-.184,7.97,7.97,0,0,0,2.166-5.573V8.6c0-1.056-1.011-1.846-2.355-1.846Z" transform="translate(18006.084 14387.08) rotate(180)" fill="#f9a72c"/>
  </g>
</svg>
