<svg xmlns="http://www.w3.org/2000/svg" width="17.116" height="17.115" viewBox="0 0 17.116 17.115">
  <path id="schedule_FILL0_wght400_GRAD0_opsz48_2_" data-name="schedule_FILL0_wght400_GRAD0_opsz48 (2)" d="M15.7,16.687l.963-.963-3.4-3.423V8H11.98v4.814Zm-3.145,4.429a8.281,8.281,0,0,1-3.316-.674,8.622,8.622,0,0,1-4.568-4.568,8.5,8.5,0,0,1,0-6.633A8.622,8.622,0,0,1,9.242,4.674a8.5,8.5,0,0,1,6.633,0,8.622,8.622,0,0,1,4.568,4.568,8.5,8.5,0,0,1,0,6.633,8.622,8.622,0,0,1-4.568,4.568A8.281,8.281,0,0,1,12.558,21.116ZM12.558,12.558Zm0,7.274a7,7,0,0,0,5.135-2.14,7,7,0,0,0,2.14-5.135,7,7,0,0,0-2.14-5.135,7,7,0,0,0-5.135-2.14,7,7,0,0,0-5.135,2.14,7,7,0,0,0-2.14,5.135,7,7,0,0,0,2.14,5.135A7,7,0,0,0,12.558,19.832Z" transform="translate(-4 -4)" fill="#fff"/>
</svg>
