<?xml version="1.0" encoding="UTF-8"?><svg id="Layer_1" xmlns="http://www.w3.org/2000/svg" viewBox="0 0 32 32"><defs><style>.cls-1{fill:#2f47c2;}.cls-2{stroke:#ffb126;stroke-linecap:round;stroke-linejoin:round;stroke-width:1.22px;}.cls-2,.cls-3{fill:none;}</style></defs><path class="cls-1" d="M14.24,14.05c-2.77,0-5.02-2.25-5.02-5.02s2.25-5.02,5.02-5.02,5.02,2.25,5.02,5.02c0,0,0,0,0,0,0,2.77-2.25,5.01-5.02,5.02Zm0-8.55c-1.95,0-3.54,1.58-3.54,3.54s1.58,3.54,3.54,3.54,3.54-1.58,3.54-3.54h0c0-1.95-1.58-3.54-3.54-3.54Z"/><path class="cls-1" d="M15.53,26.59c-.33-.33-.5-.79-.46-1.25H6.3v-4.3c2.13-2.27,5.13-3.54,8.24-3.48h.54c-.07-.51,.1-1.01,.46-1.38l.09-.08c-.35,0-.74-.04-1.09-.04-3.67-.09-7.19,1.48-9.58,4.27-.1,.13-.15,.29-.15,.45v4.56c0,.82,.67,1.49,1.49,1.49H15.74l-.21-.24Z"/><path d="M24.3,15.15s.07,0,.11,0c-.04,0-.07,0-.11,0Z"/><path class="cls-3" d="M4.33,3.04H31.08V29.8H4.33V3.04Z"/><g><path class="cls-2" d="M21.82,14.35c.34,0,.59,0,.84,.08l.42,1.26c.34,.08,.76,.25,1.1,.42l1.26-.59c.42,.34,.84,.76,1.18,1.18l-.59,1.26c.17,.34,.34,.67,.42,1.1l1.26,.42c.08,.59,.08,1.1,0,1.69l-1.26,.42c-.08,.34-.25,.76-.42,1.1l.59,1.26c-.34,.42-.76,.84-1.18,1.18l-1.26-.59c-.34,.17-.67,.34-1.1,.42l-.42,1.26c-.59,.08-1.1,.08-1.69,0l-.42-1.26c-.34-.08-.76-.25-1.1-.42l-1.26,.59c-.42-.34-.84-.76-1.18-1.18l.59-1.26c-.17-.34-.34-.67-.42-1.1l-1.26-.42c-.08-.51-.08-1.1,0-1.69l1.26-.42c.08-.34,.25-.76,.42-1.1l-.59-1.26c.34-.42,.76-.84,1.18-1.18l1.26,.59c.34-.17,.67-.34,1.1-.42l.42-1.26c.34-.08,.59-.08,.84-.08Z"/><circle class="cls-2" cx="21.82" cy="20.34" r="2.53"/></g></svg>