<?xml version="1.0" encoding="UTF-8"?><svg id="Layer_1" xmlns="http://www.w3.org/2000/svg" viewBox="0 0 24 24"><defs><style>.cls-1{fill:none;opacity:.5;stroke:#000;stroke-miterlimit:5.33;stroke-width:1.53px;}</style></defs><path class="cls-1" d="M14.03,20.93v-5.9c0-.34,.27-.61,.61-.61h5.9c.34,0,.61,.27,.61,.61h0v5.9c0,.34-.27,.61-.61,.61h-5.9c-.34,0-.61-.27-.61-.61h0Zm-11.18,0v-5.9c0-.34,.27-.61,.61-.61h5.9c.34,0,.61,.27,.61,.61h0v5.9c0,.34-.27,.61-.61,.61H3.46c-.34,0-.61-.27-.61-.61h0ZM14.03,9.74V3.84c0-.34,.27-.61,.61-.61h5.9c.34,0,.61,.27,.61,.61h0v5.9c0,.34-.27,.61-.61,.61h-5.9c-.34,0-.61-.27-.61-.61,0,0,0,0,0,0Zm-11.18,0V3.84c0-.34,.27-.61,.61-.61h5.9c.34,0,.61,.27,.61,.61h0v5.9c0,.34-.27,.61-.61,.61H3.46c-.34,0-.61-.27-.61-.61h0Z"/></svg>