<?xml version="1.0" encoding="UTF-8"?><svg id="Layer_1" xmlns="http://www.w3.org/2000/svg" viewBox="0 0 32 32"><path d="M12,24c-.73,0-1.36-.26-1.88-.78-.52-.52-.78-1.15-.78-1.88V5.33c0-.73,.26-1.36,.78-1.88,.52-.52,1.15-.78,1.88-.78h12c.73,0,1.36,.26,1.88,.78,.52,.52,.78,1.15,.78,1.88V21.33c0,.73-.26,1.36-.78,1.88-.52,.52-1.15,.78-1.88,.78H12Zm0-2.67h12V5.33H12V21.33Zm-8-1.33h2.67v-2.67h-2.67v2.67Zm0-4.67h2.67v-2.67h-2.67v2.67Zm9.33,14h2.67v-2.67h-2.67v2.67Zm-9.33-4.67h2.67v-2.67h-2.67v2.67Zm2.67,4.67v-2.67h-2.67c0,.73,.26,1.36,.78,1.88,.52,.52,1.15,.78,1.88,.78Zm2,0h2.67v-2.67h-2.67v2.67Zm9.33,0c.73,0,1.36-.26,1.88-.78,.52-.52,.78-1.15,.78-1.88h-2.67v2.67ZM4,10.67h2.67v-2.67c-.73,0-1.36,.26-1.88,.78-.52,.52-.78,1.15-.78,1.88Z"/></svg>