<svg xmlns="http://www.w3.org/2000/svg" xmlns:xlink="http://www.w3.org/1999/xlink" width="46.223" height="36.389" viewBox="0 0 46.223 36.389">
  <defs>
    <clipPath id="clip-path">
      <rect id="Rectangle_20422" data-name="Rectangle 20422" width="46.223" height="36.389" fill="none" stroke="#f5952b" stroke-width="1"/>
    </clipPath>
  </defs>
  <g id="Group_80335" data-name="Group 80335" transform="translate(-450)">
    <g id="Group_80034" data-name="Group 80034" transform="translate(450 0)">
      <g id="Group_80033" data-name="Group 80033" clip-path="url(#clip-path)">
        <path id="Path_55306" data-name="Path 55306" d="M1,28.736V26.77a13.769,13.769,0,1,1,27.538,0v1.966" transform="translate(0.475 6.178)" fill="none" stroke="#f5952b" stroke-linecap="round" stroke-miterlimit="5.333" stroke-width="2"/>
        <path id="Path_55307" data-name="Path 55307" d="M17,18.835h0a9.835,9.835,0,1,1,19.669,0v.984" transform="translate(8.079 4.277)" fill="none" stroke="#f5952b" stroke-linecap="round" stroke-miterlimit="5.333" stroke-width="2"/>
        <path id="Path_55308" data-name="Path 55308" d="M12.869,18.7A7.868,7.868,0,1,0,5,10.835,7.868,7.868,0,0,0,12.869,18.7Zm19.669-5.9a5.9,5.9,0,1,0-5.9-5.9A5.9,5.9,0,0,0,32.538,12.8Z" transform="translate(2.376 0.476)" fill="none" stroke="#f5952b" stroke-linecap="round" stroke-linejoin="round" stroke-width="2"/>
      </g>
    </g>
    <circle id="Ellipse_554" data-name="Ellipse 554" cx="5" cy="5" r="5" transform="translate(461 6)" fill="rgba(245,149,43,0.44)"/>
    <circle id="Ellipse_556" data-name="Ellipse 556" cx="3" cy="3" r="3" transform="translate(481 5)" fill="rgba(245,149,43,0.44)"/>
    <path id="Path_55318" data-name="Path 55318" d="M10.58,0a10.58,10.58,0,0,1,10.58,10.58c0,5.843-13.854-1.957-21.159,0A10.58,10.58,0,0,1,10.58,0Z" transform="translate(454.92 22.557)" fill="rgba(245,149,43,0.44)"/>
    <path id="Path_55320" data-name="Path 55320" d="M6.5,0A6.5,6.5,0,0,1,13,6.5c0,3.59-8.512-1.2-13,0A6.5,6.5,0,0,1,6.5,0Z" transform="translate(478.5 16.07)" fill="rgba(245,149,43,0.44)"/>
  </g>
</svg>
